<svg width="100%" height="100%" viewBox="0 0 3508 2482" fill="none" xmlns="http://www.w3.org/2000/svg">
<path d="M1718.86 463.797C1720.24 463.79 1721.62 463.783 1723 463.776C1727.4 463.757 1731.79 463.752 1736.19 463.75C1737.31 463.75 1737.31 463.75 1738.46 463.749C1761.44 463.742 1784.17 464.117 1807 467C1808.43 467.174 1809.87 467.348 1811.3 467.52C1881.06 476.053 1949.31 496.689 2011.83 528.886C2014.31 530.158 2016.79 531.412 2019.28 532.668C2057.9 552.329 2093.98 577.217 2126.9 605.372C2129.82 607.868 2132.81 610.28 2135.81 612.688C2139.74 615.882 2143.37 619.211 2146.86 622.883C2148.69 624.694 2150.56 626.354 2152.52 628.028C2157.58 632.429 2162.31 637.162 2167.05 641.916C2168.56 643.435 2170.08 644.95 2171.6 646.463C2176.41 651.27 2181.12 656.126 2185.54 661.295C2187.59 663.691 2189.74 665.997 2191.88 668.313C2196.8 673.715 2201.43 679.302 2206 685C2206.91 686.121 2207.83 687.24 2208.74 688.36C2234.32 719.851 2256.17 754.081 2275 790C2275.52 790.985 2276.04 791.97 2276.57 792.985C2308.7 854.542 2328.75 922.007 2337.75 990.75C2337.85 991.51 2337.95 992.269 2338.06 993.052C2341.17 1016.7 2342.34 1040.37 2342.26 1064.21C2342.25 1068 2342.26 1071.79 2342.27 1075.58C2342.29 1097.85 2341.01 1120.02 2338.25 1142.13C2338.13 1143.13 2338.13 1143.13 2338 1144.15C2332.22 1190.54 2321.31 1236.21 2304.88 1280C2304.51 1280.98 2304.51 1280.98 2304.14 1281.98C2301.61 1288.74 2298.9 1295.35 2295.67 1301.82C2290.15 1311.9 2290.15 1311.9 2290.08 1322.81C2292.04 1325.95 2294.58 1328.45 2297.2 1331.04C2300.78 1334.93 2303.53 1339.47 2306.44 1343.88C2307.73 1345.78 2309.03 1347.69 2310.32 1349.59C2310.95 1350.51 2311.57 1351.43 2312.22 1352.38C2314.72 1356.05 2317.23 1359.72 2319.75 1363.38C2320.41 1364.33 2320.41 1364.33 2321.08 1365.3C2321.95 1366.57 2322.82 1367.83 2323.69 1369.1C2325.96 1372.4 2328.23 1375.7 2330.5 1379C2331.42 1380.33 2332.33 1381.67 2333.25 1383C2378.62 1449 2424 1515 2602.75 1775C2603.2 1775.66 2603.66 1776.32 2604.13 1777C2605.04 1778.33 2605.95 1779.66 2606.86 1780.99C2609.22 1784.41 2611.57 1787.83 2613.93 1791.25C2618.67 1798.13 2623.4 1805.02 2628 1812C2623.94 1813.36 2621.18 1812.01 2617.28 1810.71C2615.63 1810.18 2613.99 1809.65 2612.35 1809.13C2611.47 1808.84 2610.59 1808.56 2609.69 1808.26C2567.84 1794.75 2525.09 1784.65 2482 1776C2481.06 1775.81 2480.13 1775.62 2479.16 1775.43C2420.19 1763.66 2360.07 1756.03 2300 1753C2299.27 1752.96 2298.53 1752.92 2297.78 1752.88C2278.67 1751.81 2259.57 1751.8 2240.44 1751.81C2239.61 1751.81 2238.77 1751.81 2237.91 1751.81C2213.23 1751.82 2188.62 1751.94 2164 1754C2163.19 1754.07 2162.39 1754.13 2161.56 1754.2C2123.02 1757.34 2084.92 1762.39 2047 1770C2046.25 1770.15 2045.51 1770.3 2044.74 1770.45C1963.38 1786.81 1886.14 1816.84 1815.01 1859.43C1810.06 1862.39 1805.07 1865.25 1800 1868C1804.03 1859.41 1812.86 1853.06 1820 1847C1820.89 1846.23 1821.77 1845.45 1822.68 1844.65C1832.38 1836.23 1842.64 1828.58 1853 1821C1853.73 1820.47 1854.45 1819.94 1855.2 1819.39C1922.43 1770.42 2000.87 1737.11 2110 1711C2110.67 1710.86 2111.33 1710.72 2112.02 1710.58C2198.13 1692.67 2288.24 1691.5 2397 1704C2397.82 1704.11 2398.64 1704.21 2399.48 1704.32C2421.62 1707.19 2443.49 1711.12 2465.38 1715.5C2467.08 1715.84 2467.08 1715.84 2468.82 1716.19C2485.29 1719.5 2501.66 1723.14 2518 1727C2511.12 1714.65 2504.23 1702.31 2497.06 1690.13C2491.42 1680.52 2485.99 1670.82 2480.61 1661.07C2476.5 1653.65 2472.3 1646.31 2468 1639C2462.38 1629.44 2456.96 1619.78 2451.61 1610.07C2447.5 1602.65 2443.3 1595.31 2439 1588C2433.38 1578.44 2427.96 1568.78 2422.61 1559.07C2418.5 1551.65 2414.3 1544.31 2410 1537C2404.38 1527.44 2398.96 1517.78 2393.61 1508.07C2389.5 1500.65 2385.3 1493.31 2381 1486C2375.38 1476.44 2369.96 1466.78 2364.61 1457.07C2360.5 1449.65 2356.3 1442.31 2352 1435C2346.38 1425.44 2340.96 1415.78 2335.61 1406.07C2331.5 1398.65 2327.3 1391.31 2323 1384C2316.73 1373.33 2310.7 1362.53 2304.71 1351.7C2299.21 1341.76 2293.61 1331.88 2288 1322C2286.6 1324.65 2285.21 1327.29 2283.81 1329.94C2283.37 1330.78 2282.92 1331.62 2282.46 1332.49C2279.9 1337.35 2277.36 1342.23 2274.86 1347.13C2258.58 1378.94 2239.34 1409.28 2217.25 1437.4C2215.96 1439.06 2214.67 1440.72 2213.39 1442.39C2203.71 1454.91 2193.28 1466.73 2182.53 1478.33C2181.35 1479.62 2180.18 1480.92 2179.02 1482.22C2173.52 1488.41 2167.81 1494.34 2161.94 1500.19C2161.09 1501.04 2160.24 1501.89 2159.37 1502.76C2154.96 1507.17 2150.49 1511.42 2145.76 1515.48C2143.35 1517.56 2141.02 1519.72 2138.69 1521.88C2134.26 1525.91 2129.72 1529.77 2125.05 1533.54C2122.82 1535.34 2120.6 1537.16 2118.38 1539C2109.31 1546.5 2099.98 1553.53 2090.37 1560.32C2087.94 1562.04 2085.53 1563.77 2083.12 1565.51C2072.49 1573.1 2061.61 1580.06 2050.33 1586.64C2048.18 1587.9 2046.04 1589.18 2043.91 1590.48C2031.93 1597.73 2019.5 1604.1 2007.03 1610.46C2004.43 1611.78 2001.85 1613.11 1999.26 1614.45C1998.01 1615.09 1996.75 1615.73 1995.5 1616.38C1994.48 1616.9 1993.46 1617.42 1992.41 1617.96C1990 1619 1990 1619 1987 1619C1988.72 1614.9 1991.57 1611.71 1994.38 1608.31C2001 1600.16 2007.06 1591.66 2013 1583C2013.65 1582.07 2013.65 1582.07 2014.3 1581.11C2025.06 1565.48 2034.68 1549.08 2043.71 1532.39C2044.59 1530.76 2045.48 1529.13 2046.37 1527.49C2088.95 1449.54 2113.17 1356.84 2090.56 1224.31C2089.41 1220.53 2088.22 1216.76 2087 1213C2086.74 1212.18 2086.48 1211.35 2086.22 1210.5C2071.17 1162.8 2043.69 1121.09 2011.5 1083.31C2011.02 1082.75 2010.54 1082.18 2010.04 1081.6C2007.16 1078.25 2004.16 1075.09 2001 1072C2001.02 1073.31 2001.05 1074.62 2001.07 1075.97C2001.55 1114.97 1996.46 1155.49 1970 1186C1969.55 1186.6 1969.09 1187.19 1968.62 1187.81C1961.5 1196.98 1949.91 1205.17 1939 1209C1938.01 1208.67 1937.02 1208.34 1936 1208C1936.27 1207.24 1936.54 1206.49 1936.82 1205.71C1949.86 1168.99 1956.24 1131.69 1956.19 1092.69C1956.19 1091.91 1956.19 1091.12 1956.19 1090.32C1956.04 1020.21 1941.85 928.614 1890.5 876.25C1888.66 874.461 1887.29 873.145 1885 872C1885.13 872.981 1885.13 872.981 1885.26 873.981C1896.18 957.867 1896.18 957.867 1872.73 989.02C1870.58 991.468 1868.36 993.754 1866 996C1865.47 996.535 1864.95 997.07 1864.4 997.622C1859.56 1002.19 1848.74 1011 1842 1011C1842.06 1010.37 1842.12 1009.75 1842.18 1009.1C1851.29 910.255 1829.84 816.706 1766 739C1763.1 735.579 1760.06 732.287 1757 729C1755.93 727.775 1754.87 726.546 1753.81 725.313C1743.49 713.524 1732.59 702.533 1721 692C1720.08 691.156 1719.16 690.312 1718.22 689.442C1713.31 684.957 1708.26 680.677 1703.09 676.497C1700.85 674.688 1698.63 672.869 1696.41 671.036C1687 663.265 1677.3 655.955 1667.43 648.775C1665 647.003 1662.58 645.217 1660.17 643.426C1651.97 637.347 1643.72 631.347 1635.36 625.482C1630.03 621.735 1624.72 617.943 1619.44 614.125C1618.71 613.602 1617.99 613.079 1617.24 612.539C1612.45 609.078 1607.71 605.559 1603 602C1603.3 602.93 1603.6 603.859 1603.91 604.817C1633.24 695.374 1623.43 772.502 1580.34 857.369C1562.76 891.284 1541.17 922.962 1519 954C1518.5 954.706 1518 955.411 1517.48 956.137C1510.5 965.933 1503.33 975.561 1496.02 985.108C1489.81 993.216 1483.75 1001.42 1477.72 1009.66C1475.4 1012.82 1473.08 1015.97 1470.75 1019.12C1469.58 1020.71 1468.41 1022.3 1467.25 1023.88C1464.36 1027.8 1461.47 1031.71 1458.57 1035.61C1434.78 1067.61 1412.93 1100.88 1394 1136C1393.57 1136.79 1393.14 1137.59 1392.69 1138.4C1365.58 1188.18 1345.07 1245.63 1344.8 1302.88C1344.79 1304.38 1344.79 1304.38 1344.78 1305.92C1344.5 1336.59 1344.5 1336.59 1348 1367C1348.2 1368.14 1348.41 1369.28 1348.62 1370.46C1357.87 1420.85 1376.34 1468.98 1406 1511C1406.74 1512.08 1407.48 1513.15 1408.25 1514.26C1414.26 1522.9 1420.79 1531.06 1427.49 1539.17C1428.87 1540.84 1430.23 1542.52 1431.58 1544.21C1435.3 1548.84 1439.07 1553.22 1443.34 1557.34C1445.07 1559.07 1446.66 1560.88 1448.25 1562.75C1454.59 1570.09 1461.55 1576.92 1468.93 1583.21C1471.38 1585.33 1473.75 1587.54 1476.12 1589.75C1481.87 1594.99 1487.91 1599.76 1494.07 1604.5C1496.05 1606.04 1498 1607.6 1499.95 1609.18C1512.25 1619.04 1525.28 1627.72 1538.47 1636.34C1540.32 1637.55 1542.16 1638.77 1544 1640C1543.67 1640.66 1543.34 1641.32 1543 1642C1507.39 1629.44 1472.9 1614.62 1440 1596C1439.12 1595.5 1438.24 1595 1437.33 1594.49C1406.1 1576.74 1376.4 1555.98 1349.11 1532.63C1346.16 1530.12 1343.15 1527.68 1340.12 1525.25C1336.45 1522.26 1333.04 1519.17 1329.76 1515.76C1328.11 1514.11 1326.42 1512.63 1324.64 1511.13C1318.91 1506.15 1313.6 1500.75 1308.25 1495.38C1306.44 1493.57 1304.63 1491.76 1302.82 1489.96C1297 1484.14 1291.32 1478.28 1286 1472C1284.55 1470.39 1283.09 1468.79 1281.62 1467.19C1273.44 1458.11 1265.9 1448.48 1258.42 1438.82C1257.5 1437.65 1256.58 1436.47 1255.66 1435.3C1236.92 1411.39 1220.57 1385.24 1206.12 1358.56C1203.93 1354.51 1203.93 1354.51 1201 1351C1193.67 1363.42 1186.46 1375.88 1179.5 1388.5C1174.22 1398.06 1168.81 1407.53 1163.27 1416.94C1158.9 1424.4 1154.68 1431.93 1150.5 1439.5C1145.22 1449.06 1139.81 1458.53 1134.27 1467.94C1129.9 1475.4 1125.68 1482.93 1121.5 1490.5C1116.22 1500.06 1110.81 1509.53 1105.27 1518.94C1100.9 1526.4 1096.68 1533.93 1092.5 1541.5C1087.22 1551.06 1081.81 1560.53 1076.27 1569.94C1071.9 1577.4 1067.68 1584.93 1063.5 1592.5C1058.22 1602.06 1052.81 1611.53 1047.27 1620.94C1042.9 1628.4 1038.68 1635.93 1034.5 1643.5C1029.77 1652.07 1024.96 1660.57 1020 1669C1014.29 1678.71 1008.77 1688.52 1003.32 1698.39C998.959 1706.31 994.503 1714.16 990 1722C990.589 1721.87 991.178 1721.74 991.785 1721.6C1050.41 1708.43 1109.01 1697.47 1169 1693C1170.27 1692.9 1171.55 1692.79 1172.86 1692.69C1216.03 1689.28 1260.87 1689 1304 1693C1304.85 1693.08 1305.69 1693.16 1306.57 1693.24C1391.9 1701.15 1476.2 1720.3 1614 1789C1615.51 1789.91 1615.51 1789.91 1617.04 1790.85C1630.47 1799 1643.45 1807.55 1656 1817C1657.09 1817.82 1657.09 1817.82 1658.21 1818.65C1670.45 1827.81 1682.2 1837.43 1693.5 1847.73C1695.33 1849.39 1697.17 1851.04 1699.03 1852.68C1700.04 1853.58 1701.05 1854.48 1702.06 1855.38C1702.98 1856.19 1703.9 1857 1704.85 1857.84C1707 1860 1707 1860 1708 1863C1703.61 1861.45 1699.88 1859.14 1696 1856.63C1617.94 1807.17 1528.62 1776.72 1344.75 1749.25C1343.96 1749.19 1343.18 1749.13 1342.37 1749.07C1336.91 1748.67 1331.46 1748.32 1326 1748C1325.17 1747.95 1324.33 1747.9 1323.48 1747.85C1305.72 1746.86 1287.96 1746.8 1270.19 1746.81C1269.44 1746.81 1268.69 1746.81 1267.92 1746.81C1242.9 1746.83 1217.97 1747.23 1193 1749C1192.12 1749.06 1191.24 1749.12 1190.34 1749.18C1092.46 1755.98 993.182 1772.6 889.758 1805.91C888.447 1806.35 888.447 1806.35 887.109 1806.81C886.011 1807.19 886.011 1807.19 884.89 1807.59C883 1808 883 1808 880 1807C885.76 1798.29 891.645 1789.66 897.577 1781.06C899.888 1777.71 902.194 1774.36 904.5 1771C905.417 1769.67 906.333 1768.33 907.25 1767C907.704 1766.34 908.157 1765.68 908.625 1765C999.375 1633 999.375 1633 1178.13 1373C1179.04 1371.67 1179.95 1370.35 1180.85 1369.02C1183.24 1365.54 1185.66 1362.06 1188.1 1358.61C1188.61 1357.89 1189.11 1357.17 1189.63 1356.43C1190.6 1355.05 1191.58 1353.68 1192.56 1352.31C1193.22 1351.38 1193.22 1351.38 1193.88 1350.43C1194.27 1349.88 1194.65 1349.34 1195.05 1348.78C1196.28 1346.47 1196.76 1344.62 1197 1342C1196.25 1339.52 1196.25 1339.52 1194.89 1337.06C1194.41 1336.1 1193.93 1335.14 1193.43 1334.15C1192.9 1333.11 1192.36 1332.07 1191.81 1331C1163.31 1273.56 1145.62 1210.83 1137.19 1147.38C1137.09 1146.64 1136.99 1145.9 1136.89 1145.14C1133.52 1119.84 1132.62 1094.62 1132.69 1069.13C1132.69 1067.59 1132.69 1066.05 1132.69 1064.51C1132.74 1042.22 1133.1 1020.13 1136 998C1136.1 997.237 1136.19 996.474 1136.29 995.687C1143.77 936.939 1158.6 879.077 1183 825C1183.71 823.41 1183.71 823.41 1184.43 821.787C1196.2 795.426 1209.73 770.46 1225 746C1225.46 745.252 1225.93 744.504 1226.41 743.732C1251.02 704.075 1281.49 668.47 1314.38 635.5C1314.94 634.934 1315.5 634.367 1316.08 633.783C1322.21 627.636 1328.37 621.61 1335 616C1336.17 614.979 1337.34 613.956 1338.5 612.93C1369.75 585.6 1403.73 561.263 1440 541C1441.45 540.183 1441.45 540.183 1442.93 539.349C1520.73 495.772 1607.28 470.905 1718.86 463.797Z" fill="black"/>
<path d="M1571 970C1573.55 972.286 1574.88 974.484 1576.31 977.586C1576.74 978.506 1577.17 979.426 1577.62 980.374C1578.07 981.364 1578.53 982.355 1579 983.375C1598.46 1024.73 1623.33 1063.41 1652 1099C1652.75 1099.93 1653.49 1100.86 1654.26 1101.82C1662.95 1112.53 1671.93 1122.98 1681.31 1133.09C1683.06 1134.99 1684.81 1136.9 1686.54 1138.82C1692.09 1144.98 1697.83 1150.93 1703.69 1156.81C1704.39 1157.52 1705.09 1158.22 1705.81 1158.95C1709.79 1162.91 1713.87 1166.7 1718.12 1170.36C1720.92 1172.8 1723.61 1175.34 1726.31 1177.88C1731.12 1182.35 1736.07 1186.55 1741.19 1190.66C1744.98 1193.82 1748.56 1197.19 1752.17 1200.56C1755.47 1203.64 1758.84 1206.56 1762.38 1209.38C1768.4 1214.21 1773.96 1219.5 1779.57 1224.79C1782.01 1227.08 1784.46 1229.32 1787 1231.5C1792.79 1236.5 1798.32 1241.79 1803.89 1247.02C1806.07 1249.06 1808.25 1251.09 1810.43 1253.11C1817.21 1259.41 1823.92 1265.67 1829.98 1272.68C1831.38 1274.29 1832.83 1275.87 1834.3 1277.42C1856.33 1300.64 1878.17 1336.94 1879.08 1369.84C1879.05 1370.55 1879.03 1371.27 1879 1372C1879.96 1371.86 1880.92 1371.72 1881.91 1371.57C1891.87 1370.18 1901.64 1369.64 1911.69 1369.69C1912.79 1369.69 1912.79 1369.69 1913.92 1369.69C1948.88 1369.84 1990.83 1378.83 2017.19 1403.62C2029.3 1416.33 2036.15 1433.16 2038.31 1450.48C2039.33 1457.98 2042.99 1463.77 2046.81 1470.17C2052 1479 2052 1479 2052 1484C2047.09 1483.51 2043.78 1481.03 2039.88 1478.25C2024.4 1467.61 2007.77 1461.79 1988.94 1465.12C1963.75 1470.27 1940.39 1485.66 1921 1502C1920.46 1502.45 1919.92 1502.9 1919.37 1503.36C1910.71 1510.61 1902.32 1517.96 1894.95 1526.55C1890.59 1531.55 1885.94 1536.25 1881.25 1540.94C1879.76 1542.43 1878.28 1543.92 1876.8 1545.42C1870.53 1551.73 1864.01 1557.51 1857 1563C1856.31 1563.54 1855.62 1564.09 1854.91 1564.65C1831.09 1583.21 1804.78 1598.55 1776 1608C1775.16 1608.28 1774.32 1608.56 1773.45 1608.84C1697.19 1633.47 1597.07 1615.75 1527.05 1580.32C1512.14 1572.55 1498.01 1563.65 1485 1553C1484.08 1552.28 1483.17 1551.55 1482.23 1550.8C1474.82 1544.89 1467.87 1538.52 1461 1532C1459.76 1530.82 1459.76 1530.82 1458.49 1529.62C1453.72 1524.97 1449.44 1520.05 1445.29 1514.84C1443.82 1513.02 1442.32 1511.23 1440.77 1509.48C1417.94 1483.44 1400.88 1450.46 1387.69 1418.62C1387.1 1417.22 1387.1 1417.22 1386.5 1415.78C1386.15 1414.92 1385.81 1414.05 1385.45 1413.16C1385.14 1412.41 1384.84 1411.65 1384.52 1410.87C1384 1409 1384 1409 1385 1407C1393.55 1416.46 1393.55 1416.46 1397.38 1420.94C1405.17 1429.85 1413.68 1437.71 1423 1445C1424.27 1446.02 1425.54 1447.04 1426.8 1448.06C1463.7 1477.41 1508.99 1493.43 1556.32 1488.54C1578.63 1485.63 1601.89 1478.03 1620.84 1465.8C1623 1465 1623 1465 1625.45 1465.68C1628.1 1467.05 1630.74 1468.45 1633.38 1469.88C1640.75 1473.61 1649.64 1477 1658 1477C1656.84 1476.13 1656.84 1476.13 1655.65 1475.23C1638.09 1461.95 1621.42 1447.57 1608 1430C1607.59 1429.47 1607.17 1428.94 1606.75 1428.39C1568.75 1379.34 1545.12 1308.18 1546 1246C1546.66 1246.36 1547.33 1246.73 1548.01 1247.1C1551.01 1248.74 1554 1250.37 1557 1252C1557.93 1252.51 1558.86 1253.02 1559.82 1253.54C1571.28 1259.76 1582.38 1265.57 1595 1269C1594.34 1265.9 1593.28 1263.34 1591.85 1260.53C1570.92 1218.59 1559.88 1173.44 1555 1127C1554.9 1126.01 1554.79 1125.03 1554.68 1124.01C1553.68 1113.08 1553.76 1102.09 1553.75 1091.12C1553.75 1090.06 1553.75 1089 1553.75 1087.9C1553.79 1048.07 1559.06 1008.1 1571 970Z" fill="black"/>
<path d="M1636 639C1646.07 643.957 1654.96 650.403 1664 657C1664.69 657.504 1665.39 658.007 1666.1 658.526C1689.38 675.49 1712.3 695.169 1730 718C1730.81 719.004 1731.62 720.008 1732.45 721.043C1754.96 749.175 1766.95 781.329 1763.54 817.527C1758.64 861.007 1736.87 895.609 1703.13 922.938C1702.27 923.607 1701.42 924.276 1700.54 924.965C1697.75 927.202 1695.13 929.575 1692.5 932C1688.93 935.29 1685.3 938.412 1681.5 941.438C1663.65 955.929 1649.06 974.631 1646 998C1644.84 1010.97 1646.17 1022.59 1650 1035C1650.34 1036.33 1650.68 1037.66 1651 1039C1646.32 1038.41 1642.6 1036.42 1638.56 1034.12C1637.86 1033.73 1637.16 1033.33 1636.44 1032.92C1613.61 1019.62 1597.32 1000.62 1589.73 975.035C1584.24 952.122 1591.04 930.006 1600 909C1600.31 908.272 1600.62 907.545 1600.94 906.795C1606.17 894.684 1612.75 883.308 1619.34 871.89C1620.93 869.122 1622.51 866.346 1624.08 863.566C1628.53 855.727 1633.02 847.93 1637.7 840.232C1663.04 798.572 1676.12 751.845 1664.75 703.375C1659.42 681.731 1651.04 660.455 1637.24 642.738C1636 641 1636 641 1636 639Z" fill="black"/>
<path d="M1809 900C1809.86 902.872 1810.05 905.063 1809.67 908.03C1809.53 909.202 1809.53 909.202 1809.39 910.397C1809.29 911.237 1809.19 912.076 1809.08 912.941C1807.9 923.625 1807.64 934.197 1807.69 944.938C1807.69 946.334 1807.69 946.334 1807.69 947.758C1807.75 963.997 1808.62 979.915 1811 996C1811.25 997.707 1811.25 997.707 1811.5 999.449C1818.54 1046 1836.16 1087.01 1856.7 1128.89C1888.44 1193.66 1888.44 1193.66 1895 1223C1895.18 1223.78 1895.37 1224.56 1895.56 1225.36C1897.2 1233.07 1897.27 1240.7 1897.21 1248.54C1897.19 1250.76 1897.19 1252.98 1897.19 1255.19C1897.16 1261.56 1897.02 1267.71 1896 1274C1895.34 1274 1894.68 1274 1894 1274C1893.53 1273.02 1893.05 1272.04 1892.57 1271.03C1885.36 1256.26 1877.33 1242.79 1867 1230C1866.26 1229.07 1865.52 1228.13 1864.75 1227.17C1851.45 1210.6 1836.37 1194.1 1819.58 1181.02C1817.15 1179.12 1814.81 1177.15 1812.48 1175.13C1806.97 1170.38 1801.31 1165.89 1795.5 1161.5C1788.11 1155.91 1780.99 1150.09 1774 1144C1773.13 1143.25 1772.26 1142.51 1771.36 1141.74C1752.13 1124.92 1736.01 1103.62 1733.78 1077.43C1731.93 1045.5 1744.04 1015.15 1758 987C1758.53 985.933 1759.05 984.866 1759.6 983.767C1774.04 954.773 1790.88 926.844 1809 900Z" fill="black"/>
<path d="M1632 1854C1632.86 1854.5 1633.72 1854.99 1634.6 1855.5C1681.45 1882.67 1681.45 1882.67 1689 1894C1684.89 1892.72 1681.16 1891.18 1677.34 1889.2C1676.25 1888.64 1675.17 1888.08 1674.04 1887.51C1672.87 1886.91 1671.71 1886.31 1670.5 1885.69C1600.5 1850.18 1523.59 1827.74 1331.75 1800.31C1330.4 1800.22 1330.4 1800.22 1329.02 1800.13C1303.46 1798.43 1277.93 1797.79 1252.31 1797.81C1251.6 1797.81 1250.88 1797.81 1250.15 1797.81C1158.58 1797.86 1067.19 1807.14 934.949 1835.36C934.077 1835.59 933.204 1835.83 932.305 1836.07C931.191 1836.38 931.191 1836.38 930.054 1836.69C927.748 1837.04 926.203 1836.71 924 1836C967.348 1816.01 1012.92 1800.37 1059 1788C1059.65 1787.82 1060.3 1787.65 1060.97 1787.47C1109.31 1774.39 1159.06 1765.73 1209 1762C1209.68 1761.95 1210.36 1761.9 1211.05 1761.85C1296.58 1755.46 1383.16 1763.04 1632 1854Z" fill="black"/>
<path d="M2474 1800C2474.67 1800.2 2475.34 1800.39 2476.02 1800.59C2507.12 1809.7 2537.53 1820.88 2567.44 1833.31C2568.22 1833.64 2569 1833.96 2569.81 1834.3C2572 1835.21 2574.19 1836.13 2576.37 1837.05C2577.34 1837.46 2577.34 1837.46 2578.33 1837.87C2581.01 1839.02 2582.92 1839.92 2585 1842C2579.67 1841.41 2574.55 1840.53 2569.34 1839.25C2567.83 1838.89 2566.33 1838.53 2564.82 1838.17C2564.03 1837.98 2563.24 1837.79 2562.42 1837.59C2473.17 1816.28 2381.09 1805.5 2276 1803C2274.95 1802.98 2274.95 1802.98 2273.88 1802.96C2181.03 1801.44 2088.25 1811.25 1828.86 1896.11C1828.14 1896.48 1827.43 1896.84 1826.69 1897.22C1825.7 1897.73 1825.7 1897.73 1824.7 1898.25C1823 1899 1823 1899 1821 1899C1821 1898.34 1821 1897.68 1821 1897C1823.25 1895.12 1825.51 1893.36 1827.88 1891.63C1828.96 1890.83 1828.96 1890.83 1830.06 1890.01C1838.18 1884.05 1846.53 1878.45 1855 1873C1855.78 1872.49 1856.57 1871.99 1857.38 1871.47C1927.26 1826.63 2006.24 1797.2 2214.11 1765.5C2216.13 1765.44 2218.15 1765.37 2220.18 1765.31C2304.42 1762.67 2389.01 1775.08 2474 1800Z" fill="black"/>
<path d="M2266 1815C2267.13 1815.02 2268.26 1815.04 2269.43 1815.06C2356.41 1816.7 2443.26 1831.99 2607 1886C2607 1886.33 2607 1886.66 2607 1887C2598.39 1886.38 2590.06 1884.71 2581.62 1883.02C2487.47 1864.31 2390.78 1854.47 2294.82 1852.5C2291.93 1852.44 2289.05 1852.37 2286.16 1852.31C2190.28 1850.21 2093.11 1857.01 1935 1898C1933.76 1898.42 1932.52 1898.83 1931.24 1899.26C1895.48 1911.35 1860.7 1927.12 1828 1946C1829.35 1942.85 1830.69 1941.18 1833.46 1939.19C1834.53 1938.42 1834.53 1938.42 1835.61 1937.64C1836.38 1937.1 1837.15 1936.56 1837.94 1936C1838.74 1935.43 1839.54 1934.86 1840.37 1934.27C1855.65 1923.52 1871.68 1914.06 1888 1905C1889.03 1904.42 1890.06 1903.85 1891.13 1903.25C1962.42 1863.62 2041.36 1838.84 2266 1815Z" fill="black"/>
<path d="M1256.62 1809.81C1257.78 1809.81 1258.93 1809.81 1260.11 1809.81C1342.63 1809.93 1424.45 1822.57 1600.84 1888.89C1603.29 1890.15 1605.75 1891.39 1608.21 1892.63C1634.2 1905.87 1658.91 1921.17 1682 1939C1681.34 1939.33 1680.68 1939.66 1680 1940C1677.81 1939.04 1677.81 1939.04 1675.07 1937.49C1674.04 1936.92 1673.01 1936.36 1671.95 1935.77C1670.84 1935.15 1669.72 1934.52 1668.56 1933.88C1666.17 1932.56 1663.78 1931.26 1661.39 1929.97C1660.77 1929.63 1660.16 1929.3 1659.52 1928.96C1630.66 1913.39 1600.15 1901.15 1569 1891C1567.89 1890.64 1566.77 1890.27 1565.63 1889.89C1489.4 1865.03 1409.57 1853.73 1329.75 1848.88C1328.52 1848.8 1327.3 1848.72 1326.03 1848.65C1301.35 1847.24 1276.65 1846.79 1251.94 1846.81C1250.94 1846.81 1250.94 1846.81 1249.92 1846.81C1142.33 1846.87 1033.35 1856.34 916.299 1880.01C915.623 1880.15 914.948 1880.29 914.252 1880.44C912.463 1880.82 910.676 1881.21 908.889 1881.6C906.162 1881.98 904.563 1881.91 902 1881C983.761 1846.61 1072.35 1825.08 1190.06 1812.25C1190.81 1812.19 1191.55 1812.13 1192.32 1812.07C1213.73 1810.4 1235.15 1809.79 1256.62 1809.81Z" fill="black"/>
<path d="M1663 1947C1666.44 1948.28 1669.43 1949.77 1672.52 1951.76C1673.37 1952.3 1674.22 1952.84 1675.09 1953.39C1675.99 1953.96 1676.89 1954.54 1677.81 1955.12C1686.64 1960.66 1695.5 1965.73 1705 1970C1705.62 1970.28 1706.24 1970.56 1706.88 1970.85C1736.09 1983.75 1765.34 1983.6 1794.93 1972.26C1810.91 1965.71 1826.45 1957.8 1841.11 1948.7C1844 1947 1844 1947 1846 1947C1844.89 1953.95 1843.07 1959.98 1840 1966.31C1839.41 1967.54 1839.41 1967.54 1838.8 1968.8C1827.23 1992.02 1806.93 2007.84 1782.75 2016.38C1758.19 2023.79 1732.44 2020.94 1709.75 2009.34C1688.02 1997.18 1671.19 1978.02 1664 1954C1663.54 1951.66 1663.25 1949.38 1663 1947Z" fill="black"/>
<path d="M1763 1681C1763.43 1783.42 1763.43 1783.42 1761.16 1816.63C1760.99 1819.09 1760.83 1821.55 1760.68 1824C1755.7 1899.79 1755.7 1899.79 1745 1922C1743.51 1922.99 1743.51 1922.99 1742 1924C1742.01 1923.39 1742.02 1922.78 1742.03 1922.16C1742.53 1885.72 1741.88 1849.4 1740.25 1813C1740.21 1812.02 1740.16 1811.04 1740.12 1810.03C1738.7 1778.38 1737.05 1746.74 1735.22 1715.11C1735.14 1713.66 1735.05 1712.22 1734.97 1710.77C1734.82 1708.15 1734.66 1705.52 1734.51 1702.89C1734.12 1696.25 1733.9 1689.65 1734 1683C1737.71 1682.66 1741.42 1682.33 1745.12 1682C1746.7 1681.86 1746.7 1681.86 1748.3 1681.71C1749.32 1681.62 1750.33 1681.53 1751.38 1681.44C1752.31 1681.35 1753.25 1681.27 1754.21 1681.18C1757.15 1680.99 1760.06 1680.99 1763 1681Z" fill="black"/>
</svg>
