<svg viewBox="819 320 1680 1680" width="100%" height="100%" fill="none" xmlns="http://www.w3.org/2000/svg">
<path d="M1626.25 433.338C1627.56 433.332 1628.87 433.325 1630.17 433.318C1634.33 433.3 1638.49 433.295 1642.65 433.294C1643.71 433.294 1643.71 433.294 1644.8 433.293C1666.54 433.286 1688.05 433.637 1709.64 436.331C1711 436.493 1712.36 436.655 1713.71 436.817C1779.72 444.789 1844.29 464.07 1903.44 494.152C1905.78 495.341 1908.14 496.512 1910.49 497.686C1947.03 516.055 1981.17 539.309 2012.31 565.615C2015.08 567.947 2017.9 570.201 2020.74 572.451C2024.46 575.435 2027.89 578.545 2031.19 581.976C2032.92 583.668 2034.69 585.219 2036.54 586.783C2041.34 590.896 2045.81 595.317 2050.29 599.759C2051.72 601.179 2053.16 602.594 2054.6 604.008C2059.15 608.499 2063.6 613.036 2067.79 617.866C2069.73 620.104 2071.76 622.258 2073.78 624.423C2078.44 629.47 2082.82 634.69 2087.15 640.014C2088.01 641.061 2088.87 642.107 2089.74 643.153C2113.95 672.576 2134.62 704.558 2152.43 738.119C2152.92 739.039 2153.41 739.959 2153.91 740.907C2184.32 798.421 2203.28 861.455 2211.8 925.685C2211.9 926.394 2211.99 927.104 2212.09 927.835C2215.03 949.927 2216.14 972.047 2216.07 994.319C2216.06 997.86 2216.07 1001.4 2216.08 1004.94C2216.09 1025.75 2214.89 1046.47 2212.27 1067.12C2212.16 1068.05 2212.16 1068.05 2212.04 1069.01C2206.57 1112.36 2196.25 1155.02 2180.7 1195.94C2180.35 1196.85 2180.35 1196.85 2180 1197.79C2177.6 1204.11 2175.04 1210.28 2171.99 1216.33C2166.76 1225.74 2166.76 1225.74 2166.7 1235.94C2168.55 1238.87 2170.96 1241.21 2173.43 1243.63C2176.82 1247.26 2179.42 1251.5 2182.17 1255.62C2183.4 1257.4 2184.62 1259.18 2185.85 1260.96C2186.44 1261.82 2187.03 1262.68 2187.64 1263.56C2190.01 1267 2192.39 1270.42 2194.77 1273.84C2195.39 1274.73 2195.39 1274.73 2196.03 1275.64C2196.85 1276.82 2197.67 1278 2198.5 1279.18C2200.65 1282.27 2202.79 1285.35 2204.94 1288.44C2205.81 1289.68 2206.67 1290.93 2207.54 1292.17C2250.47 1353.84 2293.4 1415.51 2462.52 1658.43C2462.95 1659.05 2463.38 1659.67 2463.82 1660.3C2464.69 1661.54 2465.55 1662.78 2466.41 1664.02C2468.64 1667.22 2470.87 1670.42 2473.1 1673.61C2477.58 1680.04 2482.06 1686.48 2486.41 1693C2482.57 1694.27 2479.96 1693.01 2476.27 1691.8C2474.71 1691.3 2473.16 1690.81 2471.6 1690.32C2470.77 1690.05 2469.94 1689.78 2469.09 1689.51C2429.49 1676.88 2389.05 1667.45 2348.28 1659.37C2347.39 1659.19 2346.51 1659.01 2345.59 1658.83C2289.8 1647.84 2232.91 1640.7 2176.08 1637.88C2175.39 1637.84 2174.7 1637.8 2173.98 1637.76C2155.9 1636.76 2137.83 1636.75 2119.73 1636.77C2118.94 1636.77 2118.15 1636.77 2117.34 1636.77C2093.99 1636.78 2070.7 1636.88 2047.41 1638.81C2046.65 1638.87 2045.89 1638.93 2045.1 1639C2008.64 1641.93 1972.59 1646.65 1936.71 1653.76C1936.01 1653.9 1935.3 1654.04 1934.57 1654.18C1857.6 1669.47 1784.52 1697.52 1717.22 1737.32C1712.54 1740.08 1707.81 1742.75 1703.02 1745.32C1706.83 1737.3 1715.18 1731.37 1721.94 1725.7C1722.78 1724.98 1723.62 1724.25 1724.48 1723.51C1733.65 1715.64 1743.37 1708.49 1753.17 1701.41C1753.85 1700.91 1754.54 1700.41 1755.25 1699.9C1818.85 1654.15 1893.07 1623.03 1996.32 1598.63C1996.95 1598.5 1997.58 1598.37 1998.23 1598.24C2079.7 1581.51 2164.95 1580.41 2267.86 1592.09C2268.63 1592.19 2269.41 1592.29 2270.21 1592.39C2291.15 1595.07 2311.85 1598.75 2332.55 1602.84C2334.16 1603.16 2334.16 1603.16 2335.81 1603.48C2351.39 1606.57 2366.88 1609.98 2382.34 1613.58C2375.83 1602.04 2369.31 1590.52 2362.53 1579.13C2357.19 1570.16 2352.05 1561.09 2346.96 1551.98C2343.08 1545.05 2339.1 1538.19 2335.03 1531.36C2329.71 1522.43 2324.59 1513.4 2319.52 1504.33C2315.64 1497.4 2311.66 1490.54 2307.59 1483.71C2302.27 1474.78 2297.15 1465.75 2292.08 1456.68C2288.2 1449.75 2284.22 1442.89 2280.16 1436.06C2274.84 1427.13 2269.71 1418.1 2264.65 1409.03C2260.76 1402.1 2256.79 1395.24 2252.72 1388.41C2247.4 1379.48 2242.28 1370.45 2237.21 1361.38C2233.33 1354.45 2229.35 1347.58 2225.28 1340.76C2219.96 1331.83 2214.84 1322.8 2209.77 1313.73C2205.89 1306.8 2201.91 1299.93 2197.84 1293.11C2191.91 1283.14 2186.21 1273.05 2180.54 1262.93C2175.34 1253.64 2170.03 1244.41 2164.73 1235.18C2163.41 1237.65 2162.09 1240.12 2160.77 1242.6C2160.35 1243.38 2159.93 1244.17 2159.49 1244.98C2157.07 1249.53 2154.67 1254.08 2152.3 1258.66C2136.89 1288.38 2118.69 1316.73 2097.79 1343C2096.57 1344.55 2095.35 1346.1 2094.14 1347.66C2084.99 1359.36 2075.11 1370.41 2064.94 1381.25C2063.82 1382.45 2062.72 1383.66 2061.62 1384.88C2056.41 1390.66 2051.01 1396.21 2045.46 1401.67C2044.66 1402.46 2043.86 1403.25 2043.03 1404.07C2038.86 1408.19 2034.63 1412.16 2030.16 1415.96C2027.88 1417.9 2025.67 1419.91 2023.46 1421.93C2019.27 1425.7 2014.98 1429.31 2010.56 1432.82C2008.45 1434.51 2006.34 1436.21 2004.25 1437.93C1995.67 1444.94 1986.84 1451.51 1977.75 1457.85C1975.45 1459.46 1973.17 1461.08 1970.89 1462.7C1960.83 1469.79 1950.54 1476.29 1939.86 1482.44C1937.83 1483.61 1935.81 1484.81 1933.79 1486.03C1922.46 1492.8 1910.69 1498.75 1898.89 1504.69C1896.44 1505.93 1893.99 1507.17 1891.55 1508.42C1890.36 1509.02 1889.18 1509.62 1887.99 1510.22C1887.02 1510.71 1886.06 1511.2 1885.06 1511.7C1882.79 1512.68 1882.79 1512.68 1879.95 1512.68C1881.58 1508.84 1884.27 1505.86 1886.92 1502.69C1893.19 1495.07 1898.93 1487.13 1904.55 1479.04C1905.16 1478.17 1905.16 1478.17 1905.78 1477.27C1915.96 1462.67 1925.06 1447.35 1933.6 1431.76C1934.43 1430.23 1935.28 1428.7 1936.12 1427.18C1976.4 1354.35 1999.32 1267.73 1977.93 1143.91C1976.84 1140.37 1975.71 1136.85 1974.56 1133.34C1974.31 1132.57 1974.07 1131.8 1973.82 1131.01C1959.58 1086.44 1933.58 1047.47 1903.13 1012.17C1902.67 1011.64 1902.22 1011.11 1901.75 1010.57C1899.02 1007.44 1896.19 1004.48 1893.19 1001.6C1893.21 1002.82 1893.24 1004.05 1893.26 1005.31C1893.71 1041.75 1888.9 1079.61 1863.86 1108.11C1863.43 1108.67 1863 1109.23 1862.56 1109.8C1855.83 1118.37 1844.86 1126.02 1834.53 1129.6C1833.6 1129.29 1832.66 1128.98 1831.69 1128.67C1831.95 1127.96 1832.21 1127.25 1832.47 1126.52C1844.81 1092.22 1850.85 1057.37 1850.79 1020.93C1850.79 1020.2 1850.79 1019.47 1850.79 1018.71C1850.65 953.206 1837.23 867.629 1788.65 818.704C1786.91 817.032 1785.61 815.803 1783.44 814.733C1783.56 815.65 1783.56 815.65 1783.69 816.584C1794.02 894.961 1794.02 894.961 1771.83 924.068C1769.8 926.355 1767.7 928.491 1765.47 930.59C1764.97 931.09 1764.47 931.59 1763.95 932.105C1759.38 936.371 1749.13 944.605 1742.76 944.605C1742.82 944.019 1742.87 943.433 1742.93 942.829C1751.55 850.476 1731.25 763.07 1670.85 690.468C1668.11 687.271 1665.23 684.195 1662.34 681.125C1661.33 679.98 1660.32 678.831 1659.32 677.679C1649.56 666.665 1639.25 656.395 1628.28 646.554C1627.41 645.766 1626.54 644.977 1625.65 644.164C1621 639.974 1616.22 635.975 1611.33 632.069C1609.21 630.379 1607.11 628.68 1605.02 626.966C1596.11 619.706 1586.94 612.876 1577.6 606.168C1575.3 604.512 1573.01 602.843 1570.72 601.17C1562.96 595.491 1555.16 589.884 1547.25 584.404C1542.21 580.903 1537.19 577.36 1532.19 573.794C1531.5 573.305 1530.81 572.816 1530.11 572.312C1525.58 569.078 1521.1 565.79 1516.64 562.465C1516.92 563.333 1517.21 564.202 1517.5 565.096C1545.24 649.707 1535.97 721.769 1495.19 801.062C1478.57 832.75 1458.13 862.348 1437.16 891.348C1436.69 892.007 1436.21 892.666 1435.72 893.345C1429.12 902.497 1422.34 911.493 1415.42 920.413C1409.55 927.988 1403.81 935.656 1398.1 943.35C1395.91 946.301 1393.71 949.246 1391.52 952.191C1390.41 953.675 1389.3 955.159 1388.19 956.643C1385.47 960.301 1382.73 963.955 1379.99 967.598C1357.48 997.498 1336.81 1028.59 1318.9 1061.4C1318.49 1062.14 1318.08 1062.88 1317.66 1063.64C1292.01 1110.15 1272.6 1163.83 1272.34 1217.32C1272.33 1218.72 1272.33 1218.72 1272.32 1220.15C1272.06 1248.81 1272.06 1248.81 1275.37 1277.23C1275.57 1278.29 1275.76 1279.36 1275.96 1280.46C1284.71 1327.54 1302.19 1372.51 1330.25 1411.77C1330.95 1412.77 1331.65 1413.78 1332.37 1414.81C1338.06 1422.88 1344.24 1430.51 1350.58 1438.08C1351.88 1439.65 1353.17 1441.22 1354.45 1442.8C1357.97 1447.12 1361.53 1451.21 1365.57 1455.06C1367.22 1456.68 1368.72 1458.38 1370.22 1460.12C1376.22 1466.98 1382.81 1473.36 1389.79 1479.23C1392.11 1481.22 1394.35 1483.28 1396.6 1485.35C1402.03 1490.24 1407.75 1494.7 1413.57 1499.13C1415.44 1500.56 1417.29 1502.03 1419.13 1503.5C1430.78 1512.72 1443.1 1520.82 1455.58 1528.88C1457.33 1530.01 1459.07 1531.15 1460.81 1532.3C1460.5 1532.91 1460.19 1533.53 1459.87 1534.17C1426.18 1522.43 1393.55 1508.59 1362.42 1491.19C1361.58 1490.72 1360.75 1490.25 1359.89 1489.78C1330.35 1473.19 1302.25 1453.79 1276.42 1431.98C1273.63 1429.63 1270.78 1427.35 1267.92 1425.08C1264.44 1422.29 1261.22 1419.4 1258.11 1416.21C1256.56 1414.68 1254.96 1413.29 1253.27 1411.89C1247.85 1407.24 1242.83 1402.19 1237.76 1397.17C1236.05 1395.48 1234.34 1393.79 1232.63 1392.11C1227.12 1386.67 1221.75 1381.2 1216.71 1375.33C1215.34 1373.83 1213.96 1372.33 1212.58 1370.83C1204.83 1362.35 1197.7 1353.35 1190.62 1344.33C1189.75 1343.23 1188.88 1342.13 1188.01 1341.04C1170.28 1318.7 1154.81 1294.27 1141.14 1269.34C1139.07 1265.56 1139.07 1265.56 1136.29 1262.28C1129.36 1273.88 1122.54 1285.52 1115.95 1297.31C1110.96 1306.25 1105.84 1315.09 1100.6 1323.89C1096.46 1330.85 1092.47 1337.89 1088.51 1344.96C1083.52 1353.9 1078.4 1362.74 1073.16 1371.54C1069.02 1378.51 1065.03 1385.54 1061.08 1392.61C1056.08 1401.55 1050.96 1410.39 1045.72 1419.19C1041.58 1426.16 1037.59 1433.19 1033.64 1440.27C1028.65 1449.2 1023.52 1458.04 1018.28 1466.84C1014.15 1473.81 1010.15 1480.84 1006.2 1487.92C1001.21 1496.85 996.086 1505.69 990.846 1514.49C986.709 1521.46 982.715 1528.5 978.764 1535.57C974.293 1543.57 969.739 1551.51 965.046 1559.39C959.64 1568.47 954.416 1577.63 949.268 1586.85C945.138 1594.25 940.922 1601.59 936.662 1608.91C937.219 1608.79 937.777 1608.66 938.351 1608.54C993.816 1596.23 1049.26 1586 1106.02 1581.82C1107.22 1581.72 1108.43 1581.62 1109.67 1581.52C1150.52 1578.34 1192.94 1578.08 1233.74 1581.82C1234.55 1581.89 1235.35 1581.96 1236.17 1582.04C1316.91 1589.43 1396.67 1607.32 1527.04 1671.51C1528.47 1672.37 1528.47 1672.37 1529.92 1673.24C1542.62 1680.86 1554.91 1688.85 1566.78 1697.67C1567.81 1698.43 1567.81 1698.43 1568.87 1699.21C1580.45 1707.78 1591.56 1716.76 1602.26 1726.38C1603.99 1727.94 1605.73 1729.48 1607.49 1731.01C1608.45 1731.85 1609.4 1732.69 1610.36 1733.53C1611.23 1734.29 1612.1 1735.04 1613 1735.83C1615.03 1737.85 1615.03 1737.85 1615.98 1740.65C1611.83 1739.21 1608.3 1737.04 1604.62 1734.7C1530.77 1688.49 1446.26 1660.03 1272.3 1634.37C1271.56 1634.32 1270.81 1634.26 1270.05 1634.2C1264.89 1633.83 1259.72 1633.5 1254.56 1633.2C1253.77 1633.16 1252.98 1633.11 1252.17 1633.07C1235.37 1632.14 1218.57 1632.08 1201.75 1632.09C1201.05 1632.09 1200.34 1632.09 1199.61 1632.1C1175.94 1632.11 1152.35 1632.48 1128.72 1634.14C1127.89 1634.2 1127.06 1634.25 1126.21 1634.31C1033.6 1640.66 939.673 1656.19 841.821 1687.31C840.58 1687.72 840.58 1687.72 839.315 1688.15C838.275 1688.51 838.275 1688.51 837.215 1688.88C835.427 1689.26 835.427 1689.26 832.588 1688.33C838.038 1680.19 843.606 1672.13 849.218 1664.1C851.405 1660.96 853.586 1657.83 855.768 1654.69C856.636 1653.45 857.503 1652.2 858.37 1650.96C858.8 1650.34 859.229 1649.72 859.671 1649.09C945.532 1525.76 945.532 1525.76 1114.65 1282.83C1115.51 1281.59 1116.37 1280.35 1117.23 1279.12C1119.49 1275.86 1121.78 1272.61 1124.09 1269.39C1124.57 1268.72 1125.05 1268.04 1125.54 1267.35C1126.46 1266.06 1127.38 1264.78 1128.31 1263.5C1128.93 1262.63 1128.93 1262.63 1129.56 1261.74C1129.92 1261.23 1130.29 1260.73 1130.67 1260.2C1131.83 1258.04 1132.28 1256.31 1132.51 1253.87C1131.8 1251.55 1131.8 1251.55 1130.52 1249.25C1130.06 1248.36 1129.6 1247.46 1129.13 1246.53C1128.63 1245.56 1128.12 1244.59 1127.6 1243.59C1100.64 1189.93 1083.9 1131.31 1075.92 1072.02C1075.83 1071.34 1075.73 1070.65 1075.63 1069.94C1072.45 1046.3 1071.6 1022.73 1071.66 998.913C1071.66 997.474 1071.67 996.036 1071.67 994.598C1071.71 973.773 1072.05 953.133 1074.8 932.459C1074.89 931.745 1074.98 931.032 1075.07 930.297C1082.15 875.407 1096.18 821.345 1119.26 770.82C1119.93 769.334 1119.93 769.334 1120.62 767.818C1131.76 743.187 1144.55 719.861 1159 697.008C1159.44 696.309 1159.88 695.61 1160.33 694.889C1183.62 657.836 1212.45 624.569 1243.56 593.765C1244.09 593.235 1244.63 592.706 1245.18 592.16C1250.97 586.417 1256.8 580.787 1263.07 575.546C1264.18 574.591 1265.28 573.635 1266.39 572.677C1295.95 547.141 1328.1 524.403 1362.42 505.471C1363.79 504.707 1363.79 504.707 1365.19 503.928C1438.79 463.213 1520.68 439.979 1626.25 433.338Z" fill="white"/>
<path d="M1486.36 906.297C1488.78 908.433 1490.03 910.487 1491.39 913.385C1491.79 914.245 1492.2 915.104 1492.62 915.99C1493.05 916.915 1493.48 917.841 1493.93 918.794C1512.34 957.431 1535.87 993.576 1563 1026.83C1563.7 1027.69 1564.41 1028.56 1565.14 1029.46C1573.35 1039.47 1581.85 1049.23 1590.73 1058.68C1592.39 1060.45 1594.03 1062.23 1595.67 1064.03C1600.93 1069.78 1606.36 1075.35 1611.9 1080.84C1612.56 1081.5 1613.22 1082.16 1613.91 1082.84C1617.67 1086.54 1621.53 1090.08 1625.55 1093.5C1628.2 1095.78 1630.75 1098.15 1633.3 1100.52C1637.85 1104.7 1642.53 1108.62 1647.38 1112.46C1650.97 1115.42 1654.36 1118.56 1657.77 1121.72C1660.89 1124.59 1664.08 1127.32 1667.42 1129.95C1673.12 1134.47 1678.38 1139.41 1683.7 1144.35C1686 1146.49 1688.32 1148.59 1690.72 1150.62C1696.2 1155.29 1701.43 1160.24 1706.7 1165.13C1708.76 1167.03 1710.83 1168.93 1712.89 1170.82C1719.3 1176.7 1725.65 1182.55 1731.39 1189.1C1732.71 1190.6 1734.08 1192.08 1735.47 1193.53C1756.31 1215.22 1776.98 1249.14 1777.84 1279.88C1777.82 1280.54 1777.79 1281.21 1777.77 1281.9C1778.68 1281.77 1779.58 1281.63 1780.52 1281.5C1789.95 1280.2 1799.18 1279.69 1808.69 1279.74C1809.74 1279.74 1809.74 1279.74 1810.81 1279.74C1843.88 1279.88 1883.57 1288.28 1908.51 1311.44C1919.96 1323.31 1926.45 1339.04 1928.49 1355.22C1929.45 1362.23 1932.92 1367.64 1936.53 1373.62C1941.44 1381.87 1941.44 1381.87 1941.44 1386.54C1936.8 1386.09 1933.67 1383.77 1929.97 1381.17C1915.33 1371.23 1899.6 1365.79 1881.78 1368.91C1857.95 1373.71 1835.84 1388.09 1817.5 1403.36C1816.99 1403.78 1816.48 1404.2 1815.96 1404.63C1807.76 1411.4 1799.83 1418.27 1792.86 1426.3C1788.73 1430.97 1784.33 1435.36 1779.89 1439.74C1778.49 1441.13 1777.09 1442.53 1775.68 1443.93C1769.75 1449.82 1763.59 1455.23 1756.95 1460.35C1756.3 1460.86 1755.65 1461.37 1754.98 1461.89C1732.44 1479.24 1707.55 1493.56 1680.31 1502.4C1679.52 1502.66 1678.72 1502.92 1677.9 1503.18C1605.75 1526.19 1511.02 1509.64 1444.77 1476.54C1430.67 1469.28 1417.3 1460.96 1404.99 1451.01C1404.13 1450.33 1403.26 1449.66 1402.37 1448.96C1395.36 1443.43 1388.78 1437.48 1382.29 1431.39C1381.11 1430.29 1381.11 1430.29 1379.91 1429.17C1375.39 1424.82 1371.35 1420.22 1367.42 1415.35C1366.03 1413.65 1364.61 1411.98 1363.15 1410.34C1341.55 1386.01 1325.4 1355.21 1312.92 1325.46C1312.37 1324.14 1312.37 1324.14 1311.8 1322.8C1311.47 1321.99 1311.14 1321.19 1310.81 1320.36C1310.52 1319.65 1310.23 1318.94 1309.93 1318.21C1309.43 1316.47 1309.43 1316.47 1310.38 1314.6C1318.47 1323.44 1318.47 1323.44 1322.09 1327.62C1329.47 1335.95 1337.51 1343.29 1346.33 1350.1C1347.53 1351.06 1348.73 1352.01 1349.93 1352.96C1384.84 1380.38 1427.69 1395.35 1472.47 1390.78C1493.58 1388.06 1515.58 1380.96 1533.52 1369.54C1535.56 1368.79 1535.56 1368.79 1537.87 1369.42C1540.38 1370.71 1542.88 1372.01 1545.37 1373.34C1552.35 1376.84 1560.77 1380 1568.67 1380C1567.57 1379.18 1567.57 1379.18 1566.45 1378.35C1549.83 1365.94 1534.06 1352.51 1521.37 1336.09C1520.98 1335.59 1520.58 1335.1 1520.18 1334.58C1484.23 1288.75 1461.88 1222.27 1462.71 1164.17C1463.33 1164.51 1463.96 1164.85 1464.61 1165.2C1467.44 1166.73 1470.28 1168.25 1473.11 1169.78C1474 1170.25 1474.88 1170.73 1475.78 1171.22C1486.62 1177.02 1497.12 1182.46 1509.07 1185.66C1508.44 1182.77 1507.44 1180.38 1506.08 1177.74C1486.28 1138.56 1475.84 1096.38 1471.22 1052.99C1471.12 1052.07 1471.02 1051.14 1470.92 1050.19C1469.98 1039.98 1470.04 1029.72 1470.04 1019.47C1470.04 1018.47 1470.04 1017.48 1470.04 1016.46C1470.07 979.244 1475.07 941.898 1486.36 906.297Z" fill="white"/>
<path d="M1547.86 597.035C1557.38 601.667 1565.8 607.69 1574.35 613.853C1575.01 614.324 1575.66 614.794 1576.34 615.279C1598.36 631.128 1620.05 649.516 1636.79 670.847C1637.56 671.785 1638.32 672.723 1639.11 673.69C1660.4 699.974 1671.76 730.017 1668.53 763.838C1663.89 804.462 1643.3 836.792 1611.37 862.326C1610.56 862.951 1609.75 863.576 1608.92 864.22C1606.28 866.31 1603.8 868.527 1601.31 870.793C1597.94 873.867 1594.5 876.784 1590.91 879.611C1574.01 893.151 1560.22 910.624 1557.32 932.459C1556.22 944.576 1557.48 955.437 1561.1 967.029C1561.43 968.272 1561.75 969.517 1562.05 970.766C1557.62 970.213 1554.1 968.354 1550.28 966.211C1549.62 965.841 1548.96 965.47 1548.28 965.089C1526.67 952.655 1511.26 934.908 1504.08 911.002C1498.89 889.594 1505.32 868.93 1513.8 849.303C1514.09 848.624 1514.38 847.944 1514.68 847.244C1519.64 835.927 1525.86 825.298 1532.09 814.631C1533.6 812.044 1535.09 809.451 1536.58 806.854C1540.79 799.529 1545.04 792.244 1549.47 785.052C1573.44 746.128 1585.81 702.469 1575.06 657.182C1570.01 636.96 1562.09 617.081 1549.03 600.528C1547.86 598.904 1547.86 598.904 1547.86 597.035Z" fill="white"/>
<path d="M1711.54 840.895C1712.35 843.578 1712.53 845.625 1712.17 848.397C1712.04 849.492 1712.04 849.492 1711.91 850.609C1711.81 851.393 1711.71 852.178 1711.61 852.986C1710.5 862.968 1710.25 872.845 1710.3 882.881C1710.3 884.185 1710.3 884.185 1710.3 885.516C1710.35 900.689 1711.17 915.561 1713.43 930.59C1713.67 932.185 1713.67 932.185 1713.91 933.813C1720.56 977.309 1737.23 1015.62 1756.67 1054.75C1786.7 1115.27 1786.7 1115.27 1792.9 1142.68C1793.08 1143.41 1793.25 1144.14 1793.43 1144.88C1794.99 1152.09 1795.05 1159.22 1794.99 1166.55C1794.97 1168.62 1794.97 1170.69 1794.97 1172.76C1794.95 1178.71 1794.81 1184.46 1793.85 1190.33C1793.23 1190.33 1792.6 1190.33 1791.96 1190.33C1791.51 1189.42 1791.06 1188.5 1790.6 1187.56C1783.79 1173.75 1776.19 1161.17 1766.41 1149.22C1765.71 1148.35 1765.01 1147.48 1764.29 1146.58C1751.7 1131.09 1737.43 1115.68 1721.55 1103.46C1719.25 1101.68 1717.04 1099.84 1714.83 1097.96C1709.61 1093.52 1704.26 1089.32 1698.76 1085.22C1691.77 1080 1685.03 1074.56 1678.42 1068.87C1677.6 1068.17 1676.78 1067.48 1675.93 1066.76C1657.73 1051.04 1642.48 1031.14 1640.37 1006.67C1638.62 976.836 1650.08 948.48 1663.28 922.181C1663.78 921.184 1664.28 920.187 1664.8 919.16C1678.46 892.07 1694.39 865.976 1711.54 840.895Z" fill="white"/>
<path d="M1544.07 1732.24C1544.89 1732.71 1545.7 1733.17 1546.53 1733.65C1590.86 1759.03 1590.86 1759.03 1598 1769.62C1594.11 1768.42 1590.59 1766.98 1586.97 1765.13C1585.94 1764.61 1584.91 1764.09 1583.85 1763.55C1582.75 1762.99 1581.64 1762.43 1580.5 1761.85C1514.27 1728.68 1441.5 1707.7 1260 1682.08C1258.72 1682 1258.72 1682 1257.41 1681.91C1233.23 1680.32 1209.08 1679.72 1184.84 1679.74C1184.17 1679.75 1183.49 1679.75 1182.79 1679.75C1096.16 1679.79 1009.69 1688.46 884.577 1714.83C883.752 1715.05 882.926 1715.26 882.075 1715.49C881.021 1715.77 881.021 1715.77 879.946 1716.07C877.764 1716.39 876.302 1716.09 874.218 1715.42C915.23 1696.75 958.351 1682.13 1001.94 1670.58C1002.56 1670.41 1003.18 1670.25 1003.81 1670.08C1049.54 1657.86 1096.61 1649.77 1143.86 1646.28C1144.5 1646.24 1145.14 1646.19 1145.81 1646.14C1226.73 1640.18 1308.64 1647.26 1544.07 1732.24Z" fill="white"/>
<path d="M2340.71 1681.79C2341.34 1681.97 2341.97 1682.15 2342.62 1682.34C2372.04 1690.85 2400.82 1701.29 2429.11 1712.91C2429.85 1713.22 2430.59 1713.52 2431.36 1713.83C2433.43 1714.68 2435.5 1715.54 2437.56 1716.41C2438.48 1716.79 2438.48 1716.79 2439.42 1717.17C2441.95 1718.24 2443.76 1719.09 2445.73 1721.03C2440.69 1720.48 2435.84 1719.66 2430.91 1718.46C2429.49 1718.12 2428.06 1717.79 2426.64 1717.45C2425.89 1717.27 2425.14 1717.1 2424.37 1716.91C2339.92 1697 2252.8 1686.93 2153.38 1684.59C2152.38 1684.58 2152.38 1684.58 2151.37 1684.56C2063.52 1683.13 1975.74 1692.3 1730.33 1771.59C1729.65 1771.93 1728.97 1772.27 1728.27 1772.63C1727.34 1773.1 1727.34 1773.1 1726.39 1773.59C1724.78 1774.29 1724.78 1774.29 1722.89 1774.29C1722.89 1773.67 1722.89 1773.05 1722.89 1772.42C1725.02 1770.66 1727.16 1769.02 1729.39 1767.4C1730.42 1766.65 1730.42 1766.65 1731.46 1765.89C1739.15 1760.32 1747.04 1755.09 1755.06 1749.99C1755.8 1749.52 1756.54 1749.05 1757.31 1748.56C1823.42 1706.67 1898.15 1679.17 2094.82 1649.55C2096.73 1649.5 2098.65 1649.44 2100.56 1649.37C2180.26 1646.91 2260.3 1658.51 2340.71 1681.79Z" fill="white"/>
<path d="M2143.92 1695.8C2144.99 1695.82 2146.06 1695.84 2147.16 1695.86C2229.46 1697.39 2311.63 1711.67 2466.54 1762.14C2466.54 1762.45 2466.54 1762.76 2466.54 1763.08C2458.4 1762.49 2450.52 1760.94 2442.53 1759.36C2353.45 1741.87 2261.97 1732.68 2171.18 1730.84C2168.45 1730.78 2165.72 1730.72 2162.99 1730.66C2072.27 1728.7 1980.34 1735.06 1830.75 1773.35C1829.57 1773.74 1828.4 1774.13 1827.19 1774.53C1793.36 1785.83 1760.45 1800.56 1729.51 1818.2C1730.79 1815.26 1732.06 1813.7 1734.68 1811.84C1735.69 1811.12 1735.69 1811.12 1736.71 1810.39C1737.44 1809.88 1738.17 1809.38 1738.92 1808.86C1739.67 1808.32 1740.43 1807.79 1741.22 1807.24C1755.67 1797.2 1770.84 1788.36 1786.28 1779.89C1787.26 1779.35 1788.23 1778.82 1789.24 1778.26C1856.69 1741.23 1931.38 1718.08 2143.92 1695.8Z" fill="white"/>
<path d="M1188.92 1690.96C1190.01 1690.96 1191.1 1690.96 1192.22 1690.96C1270.29 1691.07 1347.71 1702.87 1514.59 1764.84C1516.91 1766.02 1519.24 1767.18 1521.57 1768.34C1546.15 1780.7 1569.54 1795 1591.38 1811.66C1590.75 1811.97 1590.13 1812.28 1589.49 1812.59C1587.42 1811.69 1587.42 1811.69 1584.82 1810.25C1583.85 1809.72 1582.88 1809.19 1581.88 1808.64C1580.82 1808.06 1579.76 1807.47 1578.67 1806.87C1576.41 1805.65 1574.14 1804.43 1571.88 1803.22C1571.29 1802.91 1570.71 1802.6 1570.11 1802.28C1542.81 1787.73 1513.94 1776.29 1484.47 1766.81C1483.41 1766.47 1482.36 1766.13 1481.28 1765.78C1409.16 1742.55 1333.63 1731.99 1258.11 1727.45C1256.95 1727.38 1255.79 1727.31 1254.59 1727.24C1231.24 1725.93 1207.87 1725.51 1184.49 1725.53C1183.54 1725.53 1183.54 1725.53 1182.57 1725.53C1080.78 1725.58 977.677 1734.43 866.932 1756.54C866.293 1756.67 865.654 1756.81 864.995 1756.95C863.303 1757.3 861.612 1757.66 859.922 1758.03C857.341 1758.38 855.828 1758.32 853.403 1757.47C930.759 1725.34 1014.57 1705.22 1125.95 1693.23C1126.65 1693.18 1127.35 1693.12 1128.08 1693.07C1148.34 1691.5 1168.6 1690.94 1188.92 1690.96Z" fill="white"/>
<path d="M1573.4 1819.13C1576.66 1820.33 1579.49 1821.73 1582.41 1823.58C1583.21 1824.08 1584.02 1824.59 1584.84 1825.11C1585.69 1825.64 1586.54 1826.18 1587.42 1826.73C1595.77 1831.9 1604.15 1836.63 1613.14 1840.62C1613.73 1840.89 1614.31 1841.15 1614.92 1841.41C1642.56 1853.47 1670.23 1853.33 1698.23 1842.73C1713.34 1836.62 1728.04 1829.22 1741.91 1820.72C1744.65 1819.13 1744.65 1819.13 1746.54 1819.13C1745.49 1825.63 1743.77 1831.26 1740.87 1837.18C1740.31 1838.33 1740.31 1838.33 1739.73 1839.5C1728.79 1861.2 1709.58 1875.98 1686.7 1883.95C1663.46 1890.88 1639.1 1888.22 1617.63 1877.38C1597.07 1866.02 1581.15 1848.12 1574.35 1825.68C1573.92 1823.49 1573.64 1821.35 1573.4 1819.13Z" fill="white"/>
<path d="M1668.01 1570.6C1668.42 1666.3 1668.42 1666.3 1666.28 1697.33C1666.12 1699.63 1665.97 1701.92 1665.82 1704.22C1661.11 1775.03 1661.11 1775.03 1650.98 1795.78C1649.58 1796.7 1649.58 1796.7 1648.15 1797.65C1648.15 1797.08 1648.16 1796.51 1648.17 1795.92C1648.65 1761.88 1648.03 1727.95 1646.49 1693.94C1646.45 1693.02 1646.41 1692.1 1646.37 1691.16C1645.02 1661.58 1643.46 1632.02 1641.73 1602.47C1641.65 1601.12 1641.57 1599.77 1641.5 1598.42C1641.35 1595.97 1641.21 1593.51 1641.06 1591.06C1640.69 1584.85 1640.48 1578.69 1640.58 1572.47C1644.09 1572.16 1647.59 1571.85 1651.1 1571.54C1652.59 1571.4 1652.59 1571.4 1654.1 1571.27C1655.07 1571.18 1656.03 1571.1 1657.02 1571.01C1657.91 1570.93 1658.79 1570.86 1659.7 1570.78C1662.48 1570.59 1665.23 1570.59 1668.01 1570.6Z" fill="white"/>
</svg>
