<svg width="2303" height="1899" viewBox="0 0 2303 1899" fill="none" xmlns="http://www.w3.org/2000/svg">
<path d="M1111.11 42.0564C1112.71 42.0482 1114.32 42.0399 1115.93 42.0316C1121.05 42.0089 1126.16 42.0031 1131.27 42.0017C1132.58 42.0009 1132.58 42.0009 1133.92 42.0001C1160.65 41.9918 1187.11 42.4294 1213.67 45.793C1215.34 45.9957 1217.01 46.1979 1218.67 46.3996C1299.85 56.3537 1379.27 80.4267 1452.01 117.986C1454.9 119.47 1457.79 120.933 1460.69 122.399C1505.62 145.333 1547.61 174.367 1585.91 207.211C1589.32 210.123 1592.79 212.937 1596.28 215.746C1600.85 219.472 1605.08 223.355 1609.13 227.639C1611.27 229.751 1613.44 231.688 1615.72 233.641C1621.62 238.776 1627.12 244.296 1632.63 249.842C1634.39 251.615 1636.16 253.381 1637.93 255.147C1643.52 260.755 1649 266.419 1654.15 272.449C1656.53 275.243 1659.03 277.934 1661.52 280.636C1667.24 286.938 1672.63 293.455 1677.95 300.103C1679.02 301.41 1680.08 302.716 1681.14 304.022C1710.91 340.757 1736.34 380.69 1758.24 422.591C1758.85 423.74 1759.45 424.889 1760.07 426.073C1797.46 497.883 1820.79 576.584 1831.26 656.778C1831.38 657.664 1831.5 658.55 1831.62 659.463C1835.24 687.046 1836.6 714.664 1836.51 742.472C1836.5 746.893 1836.51 751.314 1836.52 755.735C1836.54 781.716 1835.06 807.581 1831.84 833.366C1831.7 834.532 1831.7 834.532 1831.55 835.722C1824.83 889.847 1812.14 943.12 1793.01 994.205C1792.58 995.347 1792.58 995.347 1792.15 996.512C1789.21 1004.4 1786.05 1012.11 1782.3 1019.66C1775.87 1031.42 1775.87 1031.42 1775.79 1044.15C1778.07 1047.81 1781.03 1050.72 1784.07 1053.75C1788.24 1058.29 1791.44 1063.58 1794.82 1068.72C1796.33 1070.94 1797.84 1073.17 1799.35 1075.39C1800.07 1076.46 1800.8 1077.53 1801.55 1078.64C1804.46 1082.92 1807.38 1087.2 1810.32 1091.47C1811.08 1092.58 1811.08 1092.58 1811.86 1093.72C1812.87 1095.19 1813.89 1096.67 1814.9 1098.14C1817.54 1101.99 1820.18 1105.84 1822.82 1109.69C1823.89 1111.25 1824.96 1112.81 1826.02 1114.36C1878.82 1191.35 1931.62 1268.35 2139.62 1571.65C2140.15 1572.42 2140.68 1573.19 2141.22 1573.99C2142.28 1575.54 2143.34 1577.08 2144.41 1578.63C2147.14 1582.62 2149.88 1586.62 2152.62 1590.6C2158.14 1598.63 2163.65 1606.67 2169 1614.81C2164.27 1616.39 2161.07 1614.83 2156.52 1613.31C2154.61 1612.69 2152.7 1612.08 2150.79 1611.46C2149.77 1611.13 2148.74 1610.8 2147.69 1610.46C2099 1594.69 2049.25 1582.91 1999.11 1572.82C1998.02 1572.6 1996.93 1572.38 1995.81 1572.15C1927.19 1558.42 1857.23 1549.52 1787.33 1545.99C1786.48 1545.94 1785.63 1545.89 1784.75 1545.84C1762.52 1544.59 1740.29 1544.59 1718.03 1544.6C1717.06 1544.6 1716.09 1544.6 1715.09 1544.6C1686.36 1544.61 1657.73 1544.75 1629.08 1547.15C1628.15 1547.23 1627.21 1547.31 1626.24 1547.39C1581.39 1551.05 1537.06 1556.94 1492.94 1565.82C1492.07 1565.99 1491.2 1566.17 1490.31 1566.35C1395.64 1585.43 1305.76 1620.45 1222.99 1670.15C1217.23 1673.6 1211.42 1676.93 1205.53 1680.14C1210.21 1670.12 1220.49 1662.71 1228.8 1655.64C1229.83 1654.74 1230.86 1653.84 1231.92 1652.9C1243.2 1643.08 1255.14 1634.16 1267.2 1625.31C1268.04 1624.69 1268.89 1624.07 1269.76 1623.43C1347.99 1566.31 1439.26 1527.45 1566.25 1496.99C1567.02 1496.83 1567.8 1496.67 1568.59 1496.5C1668.8 1475.61 1773.65 1474.24 1900.2 1488.83C1901.16 1488.95 1902.11 1489.07 1903.1 1489.2C1928.85 1492.54 1954.3 1497.14 1979.77 1502.24C1981.75 1502.64 1981.75 1502.64 1983.78 1503.04C2002.94 1506.9 2021.99 1511.16 2041 1515.66C2033 1501.24 2024.98 1486.86 2016.64 1472.64C2010.07 1461.44 2003.75 1450.12 1997.49 1438.74C1992.72 1430.09 1987.82 1421.52 1982.82 1413C1976.28 1401.85 1969.98 1390.57 1963.74 1379.25C1958.97 1370.6 1954.08 1362.03 1949.08 1353.5C1942.53 1342.35 1936.23 1331.08 1930 1319.75C1925.23 1311.1 1920.33 1302.53 1915.33 1294.01C1908.79 1282.86 1902.49 1271.59 1896.25 1260.26C1891.48 1251.61 1886.59 1243.04 1881.59 1234.52C1875.04 1223.36 1868.74 1212.09 1862.51 1200.76C1857.74 1192.11 1852.84 1183.54 1847.84 1175.02C1841.3 1163.87 1835 1152.6 1828.77 1141.27C1823.99 1132.62 1819.1 1124.05 1814.1 1115.53C1806.8 1103.08 1799.78 1090.48 1792.82 1077.84C1786.42 1066.25 1779.9 1054.72 1773.37 1043.2C1771.75 1046.29 1770.12 1049.37 1768.5 1052.46C1767.98 1053.44 1767.46 1054.43 1766.93 1055.44C1763.95 1061.11 1761 1066.8 1758.08 1072.51C1739.13 1109.62 1716.75 1145.02 1691.05 1177.82C1689.54 1179.75 1688.05 1181.69 1686.55 1183.64C1675.29 1198.25 1663.15 1212.04 1650.64 1225.57C1649.27 1227.07 1647.91 1228.59 1646.56 1230.11C1640.16 1237.33 1633.51 1244.25 1626.68 1251.07C1625.7 1252.06 1624.71 1253.05 1623.7 1254.07C1618.57 1259.21 1613.36 1264.17 1607.86 1268.91C1605.06 1271.33 1602.35 1273.85 1599.63 1276.37C1594.47 1281.08 1589.2 1285.58 1583.77 1289.97C1581.16 1292.08 1578.58 1294.2 1576 1296.34C1565.45 1305.09 1554.59 1313.3 1543.4 1321.22C1540.58 1323.22 1537.77 1325.24 1534.97 1327.27C1522.6 1336.13 1509.94 1344.24 1496.81 1351.91C1494.31 1353.38 1491.83 1354.88 1489.35 1356.39C1475.41 1364.86 1460.94 1372.28 1446.42 1379.7C1443.41 1381.24 1440.4 1382.8 1437.39 1384.36C1435.93 1385.11 1434.47 1385.86 1433.01 1386.61C1431.83 1387.22 1430.64 1387.83 1429.41 1388.46C1426.61 1389.67 1426.61 1389.67 1423.12 1389.67C1425.13 1384.88 1428.44 1381.16 1431.7 1377.2C1439.41 1367.69 1446.46 1357.78 1453.38 1347.67C1454.13 1346.58 1454.13 1346.58 1454.89 1345.47C1467.41 1327.23 1478.6 1308.1 1489.11 1288.64C1490.14 1286.73 1491.17 1284.82 1492.21 1282.92C1541.75 1191.99 1569.94 1083.84 1543.63 929.242C1542.29 924.828 1540.9 920.435 1539.48 916.046C1539.18 915.085 1538.88 914.124 1538.57 913.134C1521.07 857.489 1489.08 808.828 1451.63 764.758C1451.07 764.099 1450.51 763.441 1449.94 762.763C1446.58 758.849 1443.09 755.164 1439.41 751.561C1439.44 753.089 1439.47 754.617 1439.49 756.191C1440.05 801.692 1434.13 848.96 1403.34 884.549C1402.81 885.245 1402.29 885.941 1401.74 886.658C1393.46 897.362 1379.97 906.913 1367.27 911.379C1366.12 910.994 1364.96 910.609 1363.78 910.213C1364.09 909.33 1364.41 908.447 1364.74 907.537C1379.91 864.707 1387.33 821.191 1387.27 775.694C1387.27 774.781 1387.27 773.868 1387.27 772.927C1387.1 691.14 1370.58 584.292 1310.83 523.207C1308.7 521.119 1307.1 519.584 1304.43 518.249C1304.58 519.393 1304.58 519.393 1304.74 520.56C1317.45 618.417 1317.45 618.417 1290.15 654.759C1287.65 657.615 1285.07 660.282 1282.32 662.902C1281.71 663.526 1281.1 664.151 1280.47 664.794C1274.84 670.121 1262.24 680.401 1254.4 680.401C1254.47 679.669 1254.54 678.938 1254.61 678.184C1265.21 562.875 1240.25 453.745 1165.96 363.097C1162.58 359.105 1159.05 355.265 1155.49 351.431C1154.25 350.002 1153.01 348.568 1151.78 347.13C1139.78 333.377 1127.09 320.555 1113.6 308.269C1112.53 307.284 1111.46 306.299 1110.36 305.284C1104.65 300.052 1098.77 295.059 1092.76 290.182C1090.15 288.073 1087.57 285.951 1084.99 283.812C1074.04 274.747 1062.76 266.219 1051.27 257.844C1048.44 255.776 1045.63 253.693 1042.82 251.604C1033.27 244.513 1023.68 237.513 1013.95 230.671C1007.74 226.299 1001.57 221.876 995.421 217.423C994.576 216.812 993.732 216.202 992.862 215.573C987.293 211.535 981.779 207.429 976.294 203.278C976.645 204.362 976.996 205.447 977.358 206.564C1011.48 312.204 1000.07 402.178 949.922 501.18C929.472 540.744 904.345 577.699 878.55 613.907C877.966 614.729 877.383 615.552 876.781 616.4C868.662 627.827 860.317 639.058 851.807 650.196C844.588 659.654 837.534 669.227 830.514 678.834C827.819 682.518 825.116 686.196 822.412 689.873C821.05 691.725 819.688 693.578 818.328 695.431C814.974 699.999 811.612 704.56 808.233 709.109C780.55 746.441 755.131 785.256 733.098 826.221C732.595 827.145 732.092 828.069 731.574 829.021C700.03 887.095 676.159 954.113 675.845 1020.89C675.833 1022.65 675.833 1022.65 675.82 1024.44C675.499 1060.22 675.499 1060.22 679.572 1095.7C679.809 1097.03 680.047 1098.36 680.291 1099.73C691.059 1158.52 712.551 1214.66 747.062 1263.68C747.924 1264.93 748.787 1266.19 749.675 1267.48C756.668 1277.56 764.266 1287.08 772.068 1296.54C773.669 1298.49 775.254 1300.45 776.829 1302.42C781.158 1307.82 785.538 1312.93 790.506 1317.74C792.528 1319.76 794.373 1321.87 796.225 1324.05C803.602 1332.61 811.702 1340.58 820.288 1347.91C823.142 1350.39 825.893 1352.97 828.66 1355.55C835.348 1361.65 842.375 1367.22 849.541 1372.75C851.841 1374.54 854.111 1376.37 856.378 1378.21C870.701 1389.72 885.852 1399.84 901.202 1409.9C903.355 1411.31 905.5 1412.74 907.641 1414.17C907.257 1414.94 906.873 1415.71 906.477 1416.5C865.04 1401.85 824.909 1384.56 786.625 1362.84C785.598 1362.26 784.571 1361.67 783.513 1361.08C747.181 1340.36 712.62 1316.15 680.858 1288.92C677.426 1285.98 673.923 1283.14 670.409 1280.3C666.131 1276.82 662.164 1273.21 658.345 1269.23C656.432 1267.31 654.46 1265.58 652.391 1263.83C645.726 1258.02 639.544 1251.72 633.313 1245.45C631.214 1243.34 629.109 1241.24 627.003 1239.13C620.228 1232.35 613.622 1225.51 607.428 1218.18C605.736 1216.31 604.039 1214.44 602.337 1212.57C592.817 1201.98 584.041 1190.75 575.33 1179.48C574.266 1178.11 573.199 1176.74 572.127 1175.37C550.317 1147.48 531.296 1116.97 514.477 1085.84C511.932 1081.13 511.932 1081.13 508.521 1077.03C499.996 1091.51 491.606 1106.05 483.503 1120.78C477.363 1131.93 471.061 1142.97 464.617 1153.96C459.529 1162.65 454.617 1171.44 449.758 1180.27C443.618 1191.43 437.316 1202.47 430.872 1213.45C425.784 1222.15 420.872 1230.94 416.013 1239.77C409.873 1250.92 403.571 1261.96 397.127 1272.94C392.04 1281.64 387.128 1290.43 382.268 1299.26C376.129 1310.42 369.826 1321.46 363.382 1332.44C358.295 1341.14 353.383 1349.93 348.523 1358.75C342.384 1369.91 336.082 1380.95 329.637 1391.93C324.55 1400.63 319.638 1409.42 314.779 1418.25C309.279 1428.24 303.679 1438.16 297.906 1448C291.258 1459.33 284.833 1470.77 278.502 1482.28C273.422 1491.51 268.237 1500.68 262.998 1509.82C263.683 1509.67 264.369 1509.51 265.075 1509.36C333.29 1493.99 401.482 1481.21 471.285 1475.99C472.768 1475.87 474.251 1475.75 475.78 1475.63C526.014 1471.65 578.183 1471.33 628.373 1475.99C629.358 1476.08 630.344 1476.18 631.359 1476.27C730.655 1485.5 828.749 1507.84 989.094 1587.98C990.847 1589.05 990.847 1589.05 992.636 1590.14C1008.26 1599.65 1023.36 1609.63 1037.97 1620.65C1039.24 1621.6 1039.24 1621.6 1040.53 1622.57C1054.78 1633.26 1068.45 1644.47 1081.61 1656.5C1083.73 1658.44 1085.88 1660.36 1088.03 1662.26C1089.21 1663.31 1090.39 1664.36 1091.56 1665.41C1092.63 1666.36 1093.7 1667.31 1094.81 1668.28C1097.31 1670.81 1097.31 1670.81 1098.47 1674.31C1093.37 1672.51 1089.03 1669.8 1084.51 1666.87C993.674 1609.18 889.745 1573.65 675.79 1541.61C674.876 1541.54 673.961 1541.47 673.018 1541.4C666.673 1540.93 660.325 1540.52 653.973 1540.15C653.004 1540.1 652.035 1540.04 651.036 1539.98C630.375 1538.83 609.714 1538.75 589.028 1538.77C588.159 1538.77 587.291 1538.77 586.395 1538.77C557.278 1538.78 528.266 1539.25 499.212 1541.32C498.189 1541.39 497.167 1541.46 496.114 1541.54C382.218 1549.47 266.7 1568.85 146.355 1607.7C144.829 1608.22 144.829 1608.22 143.273 1608.75C141.994 1609.2 141.994 1609.2 140.69 1609.66C138.491 1610.15 138.491 1610.15 135 1608.98C141.703 1598.82 148.551 1588.76 155.452 1578.73C158.142 1574.82 160.825 1570.9 163.509 1566.99C164.575 1565.43 165.642 1563.87 166.709 1562.32C167.237 1561.55 167.765 1560.78 168.308 1559.99C273.907 1406 273.907 1406 481.906 1102.69C482.964 1101.15 484.021 1099.6 485.077 1098.06C487.86 1093.99 490.667 1089.94 493.512 1085.91C494.101 1085.07 494.689 1084.23 495.296 1083.37C496.423 1081.76 497.557 1080.16 498.7 1078.56C499.462 1077.47 499.462 1077.47 500.239 1076.36C500.688 1075.73 501.136 1075.1 501.599 1074.44C503.033 1071.74 503.589 1069.59 503.866 1066.53C502.989 1063.64 502.989 1063.64 501.416 1060.77C500.854 1059.65 500.292 1058.53 499.713 1057.37C499.092 1056.16 498.47 1054.95 497.83 1053.7C464.666 986.697 444.077 913.516 434.267 839.49C434.152 838.631 434.036 837.772 433.917 836.886C429.999 807.367 428.955 777.944 429.031 748.207C429.034 746.411 429.036 744.615 429.039 742.819C429.088 716.819 429.511 691.049 432.886 665.236C432.999 664.345 433.112 663.455 433.228 662.537C441.929 594.003 459.18 526.504 487.576 463.421C488.4 461.565 488.4 461.565 489.242 459.672C502.94 428.92 518.674 399.796 536.447 371.263C536.987 370.39 537.527 369.517 538.083 368.617C566.725 322.354 602.185 280.819 640.446 242.358C641.102 241.697 641.758 241.036 642.435 240.355C649.561 233.184 656.734 226.154 664.445 219.61C665.805 218.419 667.162 217.225 668.518 216.028C704.884 184.146 744.421 155.755 786.625 132.118C788.314 131.165 788.314 131.165 790.038 130.192C880.558 79.3562 981.274 50.3479 1111.11 42.0564Z" fill="black"/>
<path d="M939.058 632.571C942.029 635.237 943.577 637.802 945.24 641.421C945.74 642.494 946.24 643.567 946.756 644.673C947.287 645.828 947.819 646.984 948.367 648.174C971.017 696.414 999.945 741.543 1033.31 783.057C1034.18 784.142 1035.05 785.226 1035.94 786.343C1046.05 798.84 1056.5 811.029 1067.42 822.825C1069.46 825.038 1071.48 827.265 1073.5 829.505C1079.96 836.694 1086.64 843.641 1093.46 850.499C1094.27 851.322 1095.09 852.145 1095.93 852.992C1100.55 857.618 1105.3 862.029 1110.25 866.306C1113.5 869.145 1116.64 872.11 1119.78 875.07C1125.37 880.289 1131.13 885.186 1137.09 889.98C1141.51 893.669 1145.68 897.598 1149.87 901.536C1153.71 905.126 1157.64 908.528 1161.75 911.816C1168.75 917.454 1175.22 923.622 1181.76 929.798C1184.59 932.47 1187.45 935.087 1190.4 937.626C1197.14 943.453 1203.57 949.629 1210.05 955.737C1212.58 958.113 1215.12 960.477 1217.67 962.839C1225.55 970.189 1233.36 977.484 1240.41 985.66C1242.04 987.543 1243.72 989.385 1245.44 991.192C1271.07 1018.28 1296.49 1060.63 1297.54 1099.01C1297.51 1099.84 1297.48 1100.67 1297.45 1101.53C1298.57 1101.36 1299.69 1101.2 1300.84 1101.03C1312.43 1099.41 1323.79 1098.77 1335.49 1098.83C1336.77 1098.83 1336.77 1098.83 1338.09 1098.84C1378.76 1099.01 1427.58 1109.49 1458.25 1138.42C1472.34 1153.24 1480.31 1172.87 1482.83 1193.08C1484.01 1201.83 1488.27 1208.58 1492.72 1216.05C1498.76 1226.35 1498.76 1226.35 1498.76 1232.18C1493.04 1231.62 1489.19 1228.72 1484.65 1225.47C1466.64 1213.06 1447.3 1206.27 1425.38 1210.16C1396.07 1216.16 1368.88 1234.12 1346.32 1253.18C1345.7 1253.71 1345.07 1254.23 1344.42 1254.77C1334.35 1263.22 1324.59 1271.8 1316.01 1281.82C1310.94 1287.65 1305.52 1293.13 1300.07 1298.6C1298.34 1300.34 1296.62 1302.09 1294.89 1303.84C1287.6 1311.19 1280.01 1317.94 1271.85 1324.34C1271.05 1324.97 1270.25 1325.61 1269.42 1326.26C1241.7 1347.92 1211.09 1365.81 1177.6 1376.84C1176.62 1377.16 1175.64 1377.48 1174.63 1377.82C1085.89 1406.54 969.392 1385.87 887.913 1344.54C870.566 1335.49 854.128 1325.09 838.987 1312.67C837.922 1311.83 836.857 1310.98 835.76 1310.11C827.146 1303.21 819.053 1295.79 811.061 1288.18C809.616 1286.8 809.616 1286.8 808.142 1285.4C802.585 1279.98 797.614 1274.23 792.779 1268.15C791.072 1266.03 789.323 1263.95 787.525 1261.9C760.955 1231.52 741.1 1193.06 725.753 1155.92C725.07 1154.27 725.07 1154.27 724.373 1152.6C723.969 1151.59 723.565 1150.58 723.149 1149.55C722.793 1148.66 722.437 1147.78 722.07 1146.87C721.462 1144.69 721.462 1144.69 722.626 1142.36C732.578 1153.4 732.578 1153.4 737.026 1158.62C746.101 1169.01 755.996 1178.18 766.843 1186.69C768.319 1187.88 769.795 1189.07 771.27 1190.26C814.198 1224.49 866.908 1243.19 921.977 1237.48C947.936 1234.08 975 1225.21 997.057 1210.95C999.566 1210.02 999.566 1210.02 1002.41 1210.81C1005.5 1212.41 1008.58 1214.04 1011.64 1215.7C1020.22 1220.07 1030.57 1224.02 1040.29 1224.02C1038.94 1223 1038.94 1223 1037.56 1221.96C1017.12 1206.46 997.725 1189.69 982.112 1169.19C981.632 1168.57 981.151 1167.95 980.656 1167.31C936.44 1110.09 908.949 1027.08 909.968 954.541C910.74 954.965 911.512 955.388 912.308 955.824C915.793 957.732 919.28 959.637 922.768 961.541C923.851 962.133 924.935 962.726 926.052 963.337C939.38 970.589 952.297 977.371 966.985 981.372C966.22 977.761 964.984 974.774 963.317 971.488C938.966 922.569 926.123 869.898 920.44 815.721C920.319 814.57 920.197 813.42 920.072 812.234C918.909 799.48 918.993 786.668 918.986 773.871C918.985 772.63 918.984 771.389 918.984 770.111C919.03 723.65 925.169 677.021 939.058 632.571Z" fill="black"/>
<path d="M1014.69 246.44C1026.41 252.223 1036.76 259.743 1047.27 267.438C1048.08 268.026 1048.89 268.614 1049.72 269.219C1076.81 289.008 1103.48 311.965 1124.07 338.599C1125.02 339.77 1125.96 340.941 1126.93 342.148C1153.11 374.966 1167.07 412.476 1163.1 454.703C1157.4 505.425 1132.07 545.79 1092.8 577.67C1091.81 578.451 1090.82 579.231 1089.79 580.035C1086.54 582.645 1083.5 585.413 1080.44 588.242C1076.28 592.08 1072.06 595.723 1067.64 599.251C1046.86 616.157 1029.89 637.973 1026.33 665.235C1024.98 680.364 1026.53 693.925 1030.98 708.398C1031.38 709.95 1031.78 711.504 1032.15 713.064C1026.71 712.373 1022.38 710.052 1017.68 707.377C1016.86 706.914 1016.05 706.452 1015.21 705.976C988.636 690.452 969.685 668.294 960.849 638.445C954.466 611.716 962.372 585.916 972.803 561.411C973.163 560.563 973.523 559.714 973.894 558.839C979.986 544.71 987.645 531.44 995.305 518.12C997.158 514.891 998.995 511.653 1000.83 508.41C1006 499.265 1011.22 490.17 1016.67 481.189C1046.16 432.591 1061.37 378.081 1048.15 321.538C1041.94 296.289 1032.19 271.469 1016.13 250.801C1014.69 248.774 1014.69 248.774 1014.69 246.44Z" fill="black"/>
<path d="M1216 550.912C1216.99 554.263 1217.22 556.819 1216.78 560.279C1216.62 561.646 1216.62 561.646 1216.46 563.041C1216.34 564.02 1216.22 565 1216.09 566.009C1214.72 578.472 1214.42 590.804 1214.47 603.334C1214.47 604.963 1214.47 604.963 1214.48 606.624C1214.54 625.569 1215.55 644.138 1218.33 662.902C1218.62 664.893 1218.62 664.893 1218.91 666.925C1227.1 721.233 1247.6 769.069 1271.5 817.925C1308.44 893.48 1308.44 893.48 1316.07 927.711C1316.28 928.618 1316.5 929.525 1316.72 930.46C1318.63 939.461 1318.71 948.356 1318.64 957.51C1318.62 960.094 1318.61 962.679 1318.61 965.264C1318.59 972.691 1318.42 979.868 1317.23 987.205C1316.47 987.205 1315.7 987.205 1314.91 987.205C1314.36 986.061 1313.81 984.916 1313.24 983.737C1304.86 966.507 1295.51 950.795 1283.49 935.876C1282.63 934.786 1281.76 933.696 1280.87 932.573C1265.4 913.24 1247.84 893.991 1228.31 878.733C1225.49 876.521 1222.76 874.218 1220.05 871.873C1213.64 866.331 1207.05 861.087 1200.29 855.967C1191.69 849.443 1183.4 842.655 1175.27 835.552C1174.26 834.682 1173.25 833.811 1172.2 832.914C1149.83 813.296 1131.07 788.447 1128.47 757.893C1126.31 720.642 1140.42 685.238 1156.65 652.403C1157.27 651.158 1157.88 649.914 1158.51 648.631C1175.32 614.807 1194.91 582.228 1216 550.912Z" fill="black"/>
<path d="M1010.04 1663.81C1011.04 1664.39 1012.04 1664.97 1013.07 1665.56C1067.58 1697.25 1067.58 1697.25 1076.36 1710.47C1071.58 1708.98 1067.24 1707.18 1062.8 1704.87C1061.53 1704.22 1060.27 1703.57 1058.96 1702.9C1057.6 1702.2 1056.24 1701.5 1054.84 1700.77C973.382 1659.36 883.889 1633.17 660.663 1601.18C659.088 1601.07 659.088 1601.07 657.482 1600.96C627.739 1598.98 598.033 1598.24 568.229 1598.26C567.397 1598.26 566.565 1598.26 565.708 1598.26C459.155 1598.31 352.819 1609.14 198.94 1642.07C197.924 1642.34 196.909 1642.61 195.862 1642.89C194.566 1643.25 194.566 1643.25 193.244 1643.62C190.561 1644.02 188.762 1643.64 186.199 1642.81C236.639 1619.49 289.673 1601.24 343.287 1586.82C344.045 1586.61 344.803 1586.4 345.584 1586.19C401.83 1570.94 459.719 1560.84 517.829 1556.49C518.618 1556.43 519.406 1556.37 520.219 1556.3C619.744 1548.86 720.489 1557.7 1010.04 1663.81Z" fill="black"/>
<path d="M1989.8 1600.82C1990.58 1601.04 1991.36 1601.27 1992.16 1601.51C2028.34 1612.13 2063.73 1625.17 2098.53 1639.68C2099.44 1640.06 2100.35 1640.43 2101.29 1640.82C2103.84 1641.89 2106.38 1642.96 2108.92 1644.04C2110.05 1644.51 2110.05 1644.51 2111.2 1644.99C2114.32 1646.33 2116.54 1647.38 2118.96 1649.81C2112.77 1649.12 2106.8 1648.1 2100.74 1646.6C2098.99 1646.18 2097.24 1645.76 2095.48 1645.34C2094.56 1645.12 2093.64 1644.9 2092.69 1644.67C1988.84 1619.81 1881.69 1607.24 1759.41 1604.32C1758.19 1604.29 1758.19 1604.29 1756.94 1604.27C1648.9 1602.49 1540.93 1613.93 1239.11 1712.93C1238.27 1713.36 1237.44 1713.79 1236.58 1714.23C1235.44 1714.82 1235.44 1714.82 1234.27 1715.43C1232.29 1716.3 1232.29 1716.3 1229.96 1716.3C1229.96 1715.53 1229.96 1714.76 1229.96 1713.97C1232.58 1711.77 1235.21 1709.73 1237.96 1707.7C1239.22 1706.77 1239.22 1706.77 1240.5 1705.82C1249.96 1698.87 1259.67 1692.34 1269.53 1685.97C1270.44 1685.38 1271.35 1684.79 1272.29 1684.19C1353.61 1631.88 1445.51 1597.55 1687.39 1560.57C1689.74 1560.5 1692.1 1560.42 1694.45 1560.34C1792.47 1557.26 1890.91 1571.75 1989.8 1600.82Z" fill="black"/>
<path d="M1747.77 1618.31C1749.09 1618.34 1750.4 1618.36 1751.76 1618.38C1852.98 1620.29 1954.04 1638.13 2144.56 1701.14C2144.56 1701.52 2144.56 1701.91 2144.56 1702.31C2134.55 1701.58 2124.86 1699.64 2115.03 1697.66C2005.47 1675.83 1892.97 1664.36 1781.31 1662.06C1777.95 1661.99 1774.59 1661.91 1771.23 1661.83C1659.66 1659.38 1546.6 1667.32 1362.61 1715.14C1361.17 1715.62 1359.73 1716.11 1358.24 1716.61C1316.63 1730.72 1276.16 1749.11 1238.11 1771.13C1239.68 1767.46 1241.24 1765.51 1244.47 1763.19C1245.7 1762.29 1245.7 1762.29 1246.96 1761.38C1247.86 1760.75 1248.75 1760.12 1249.67 1759.47C1250.6 1758.8 1251.54 1758.14 1252.5 1757.45C1270.28 1744.91 1288.93 1733.87 1307.92 1723.3C1309.13 1722.63 1310.33 1721.96 1311.56 1721.27C1394.52 1675.03 1486.38 1646.12 1747.77 1618.31Z" fill="black"/>
<path d="M573.247 1612.26C574.586 1612.26 575.925 1612.26 577.304 1612.26C673.321 1612.4 768.532 1627.14 973.777 1704.51C976.631 1705.98 979.495 1707.43 982.358 1708.88C1012.6 1724.32 1041.36 1742.16 1068.22 1762.97C1067.45 1763.35 1066.68 1763.74 1065.89 1764.13C1063.35 1763.01 1063.35 1763.01 1060.15 1761.21C1058.96 1760.55 1057.76 1759.88 1056.53 1759.2C1055.23 1758.47 1053.93 1757.74 1052.58 1756.99C1049.81 1755.46 1047.02 1753.94 1044.23 1752.43C1043.52 1752.04 1042.8 1751.65 1042.07 1751.25C1008.48 1733.09 972.976 1718.81 936.731 1706.97C935.436 1706.55 934.141 1706.12 932.806 1705.68C844.11 1676.68 751.219 1663.5 658.336 1657.83C656.908 1657.74 655.48 1657.65 654.009 1657.56C625.295 1655.93 596.548 1655.4 567.792 1655.42C566.627 1655.43 566.627 1655.43 565.439 1655.43C440.25 1655.49 313.441 1666.54 177.238 1694.15C176.452 1694.31 175.666 1694.48 174.856 1694.65C172.774 1695.09 170.695 1695.55 168.616 1696C165.442 1696.45 163.582 1696.37 160.6 1695.31C255.738 1655.19 358.816 1630.07 495.794 1615.11C496.659 1615.04 497.525 1614.97 498.417 1614.9C523.339 1612.94 548.253 1612.24 573.247 1612.26Z" fill="black"/>
<path d="M1046.11 1772.3C1050.11 1773.8 1053.6 1775.54 1057.19 1777.85C1058.18 1778.48 1059.16 1779.11 1060.18 1779.76C1061.23 1780.42 1062.27 1781.09 1063.35 1781.78C1073.62 1788.23 1083.93 1794.14 1094.98 1799.13C1095.7 1799.46 1096.43 1799.78 1097.17 1800.12C1131.16 1815.17 1165.2 1815 1199.63 1801.76C1218.22 1794.13 1236.3 1784.9 1253.36 1774.28C1256.73 1772.3 1256.73 1772.3 1259.05 1772.3C1257.76 1780.41 1255.64 1787.44 1252.07 1794.83C1251.38 1796.26 1251.38 1796.26 1250.68 1797.73C1237.22 1824.81 1213.59 1843.27 1185.45 1853.23C1156.87 1861.87 1126.91 1858.55 1100.51 1845.02C1075.22 1830.84 1055.64 1808.48 1047.27 1780.46C1046.74 1777.73 1046.4 1775.07 1046.11 1772.3Z" fill="black"/>
<path d="M1162.47 1461.99C1162.98 1581.48 1162.98 1581.48 1160.33 1620.22C1160.14 1623.08 1159.95 1625.95 1159.77 1628.82C1153.98 1717.23 1153.98 1717.23 1141.53 1743.13C1139.8 1744.29 1139.8 1744.29 1138.04 1745.47C1138.05 1744.76 1138.06 1744.05 1138.07 1743.32C1138.65 1700.81 1137.89 1658.45 1136 1615.98C1135.95 1614.83 1135.9 1613.69 1135.85 1612.51C1134.19 1575.59 1132.28 1538.68 1130.15 1501.78C1130.05 1500.1 1129.95 1498.41 1129.86 1496.73C1129.68 1493.66 1129.5 1490.59 1129.32 1487.53C1128.87 1479.78 1128.61 1472.09 1128.73 1464.33C1133.04 1463.93 1137.36 1463.55 1141.67 1463.16C1143.5 1462.99 1143.5 1462.99 1145.36 1462.82C1146.55 1462.72 1147.73 1462.61 1148.95 1462.5C1150.04 1462.41 1151.12 1462.31 1152.24 1462.21C1155.66 1461.98 1159.05 1461.98 1162.47 1461.99Z" fill="black"/>
</svg>
